<svg xmlns="http://www.w3.org/2000/svg" viewBox="0 0 115 24"><g fill="none"><path fill="#FAFF05" d="M44.1 20.4c1 0 2-.5 3.5-2.2-.4 1.4.1 2.2 1.2 2.2 1.3 0 2.4-1.3 3.5-2.7l4.7-5.8c1-1.3 1.8-2 2.6-2s.6.9-.4 2.2l-6.5 8.2h2.4l5.7-7.5c1.7-2.3 3-3 3.6-3 .3 0 .4.3.4.6 0 .6-.5 1.3-2.1 3.3l-5.3 6.6h2.3l5.7-7.5c2.2-2.8 3-3 3.4-3 .3 0 .4.3.4.5 0 1.7-4.8 5.2-4.8 8.4 0 1 .7 1.7 2 1.7 3.7 0 7.5-8 7.5-12.3 0-3.7-2-5.4-4.5-5.4-3.5 0-4.7 1.9-4.7 3.3 0 1.2.6 1.9 1.8 1.9 1.7 0 2.8-2 2.8-2.5v-.1c-.7 1.5-1.7 2-2.5 2-1 0-1.4-.5-1.4-1.4 0-1 1-2.8 3.8-2.8 2.6 0 4 1.7 4 5 0 5.7-3.7 11.6-6.5 11.6-.6 0-.8-.3-.8-.7 0-1 1.5-2.4 2.7-4.2 1-1.5 2-3 2-4.3 0-1-.5-1.5-1.3-1.5-.9 0-1.8.6-3.4 2.3.3-1 .4-2.3-1-2.3-.7 0-2 .5-3.7 2.5.5-1.6 0-2.5-1-2.5-1.2 0-2 .8-2.8 1.8L53.2 16c-1.5 1.9-3 3.9-3.8 3.9-.6 0-.9-1 .1-2.2l6.8-8.6h-2.5l-.5.8c-.1-.6-.6-.9-1.1-.9-1.8 0-4 1.3-5.7 3a15.8 15.8 0 0 0-3.2 5c-1 1.1-2.4 2.9-3.5 2.9-.7 0-.9-1 .1-2.2l6.8-8.6h-2.5l-4.7 6.5-2.5 3.1c-.8.8-1.5 1.2-2 1.2-.7 0-.9-1 .1-2.2L45.7 4.3h-2.4l-8.6 11.3-2.5 3.1c-.8.8-1.5 1.2-2 1.2-.7 0-.8-1 .2-2.2L41 4.3h-2.5l-9 11.8v.1c-.7.9-2.7 3.7-4 3.7-.8 0-1-1 0-2.2l6.8-8.6H30l-5.1 7c-1.8 2.5-1 4.3.6 4.3 1.4 0 2.3-1 3.1-2-.2 1.2.5 2 1.6 2 1.4 0 2.4-1 3.2-2-.2 1.2.5 2 1.6 2 1.4 0 2.4-1.1 3.2-2-.2 1.2.5 2 1.6 2 1.2 0 2.4-1.1 3.2-2 0 1 .1 2 1.2 2zm4.8-8.8c1.6-1.5 2.5-1.8 2.8-1.8.3 0 .5.2.5.6 0 1.3-4.2 6.7-5.3 7.7-.5.6-1.6 1.5-2.4 1.5-1.7 0 1.4-5 4.4-8zM35.2 5.5c.3-.7 0-1.3-.7-1.3s-1.5.6-1.7 1.3c-.3.7 0 1.3.8 1.3.6 0 1.4-.6 1.6-1.3zM48 6.8c.7 0 1.4-.6 1.7-1.3.2-.7-.1-1.3-.8-1.3-.7 0-1.4.6-1.7 1.3-.2.7.1 1.3.8 1.3zM11 23c-4.4 0-7-2.7-7.7-6.3H4a5 5 0 0 0 2.3-.5c.4.3.8.5 1.4.5 4.6 0 8-8.7 5.1-11.2 2.5-1.1 5-1.5 6.9-.4l-1.3 1C14.9 9.9 13.2 17 10.6 20a3 3 0 0 0-1-.2c-.5 0-1 .3-1.1.6 0 .3.3.5.8.5.4 0 .8 0 1.4-.4h.8c1 0 2.1-.4 3.3-1.6 3-3 5.7-9.6 7.5-10.8-1.7 2.8-3.5 9.3-6 12-.2-.2-.5-.3-1-.3-.4 0-1 .3-1 .6s.3.5.8.5.9 0 1.4-.4l1 .1c.9 0 2-.5 2.9-1.4 3.2-3.3 7.3-10 10.8-13.5 1.3-1.3 3.5-3 6.5-3 2.8 0 4.6 1.7 4.6 1.7l-.1-.4a6.9 6.9 0 0 0-4.9-2c-1.6 0-4.3.5-7.6 3.8-3.5 3.5-7.4 10.5-10 13.1-1.1 1.1-1.8 1.4-2.4 1.4h-.4c.4-.4 1-.8 1.6-1.5 4.2-4.3 5.2-12.1 7.6-14.5-.2-.2-1.4 0-3.4 2.1-3.3 3.3-5.2 9.1-8.4 12.4-1 1-2 1.4-2.8 1.4a1.7 1.7 0 0 1-.3 0l1.4-1.4c2.4-2.4 5-9.6 7.8-13.2 3.1-.2 3-1.6 2-1.6-.5 0-1.3.3-2.1.8a6 6 0 0 0-4-1.2c-2 0-3.8.6-5.4 1.5-3.6 0-8.5 3.8-8.5 10.2v.5c-.9-.5-1.6-1.6-1.6-3.4C.8 7.2 8.6 1 17.8 1c3.7 0 7.4 1.2 9.7 3l.2-.2c-1.5-1.5-5-3.7-11-3.7C8.7 0 0 4.7 0 12.3c0 2 1.2 3.5 2.5 4.1a8.2 8.2 0 0 0 8.1 7.3H115v-.6H11zM12.3 6c3 2-.4 10.4-4.4 10.4a2 2 0 0 1-1-.3c1.3-.9 2.6-2.5 3.5-5.6h-.2c-.6 2-2 4.1-3.7 5.2-.5-.6-.7-1.4-.7-2.3 0-2.5 3-5.6 6.5-7.4zm-9.1 9c0-4 3.5-8.8 6.8-9.4-3 2-5 5-5 7.6 0 1.1.3 2.1.9 2.8a3.9 3.9 0 0 1-1.7.4 3 3 0 0 1-1-.1 10.8 10.8 0 0 1 0-1.2z"></path><path fill="#FFF" d="M90 3h5v17.5h-5zm16.5 17.5h8.5v-5.4h-3.4V3h-5.1zm-9.7 0h8.5v-5.4h-3.5V3h-5zM83 3V9h-2.4V3h-5v17.5h5v-7H83v7h5V3z"></path></g></svg>