<svg id="Layer_1" xmlns="http://www.w3.org/2000/svg" viewBox="0 0 182.2 88.6"><style>.st0{fill:#ff0}</style><path class="st0" d="M62.9 23.9L72.9.5 44.8 35.1l8.5-1.1-8.5 17-8.2-21.1-15.1 20.6-.3-23.7-7.7 2.7.2-23.2L.4 43.8l10.1-3.5-.1 47.8 23.9-36.8 10.1 29.6 25.8-57.8zm8.4 7.2L62.4 73h10.5l9-41.9zm26.7 0H87.4l-9 41.9h22.2l2.2-10.1H91.2zm40.9 15.7c2.2-10.1-3.5-15.7-11.8-15.7h-12.9l-9 41.9h15.2c8.6 0 13.9-5.2 16.1-15.5l2.4-10.7zm-10.5.1l-2.3 10.5c-1.1 5-3.9 5.6-6.1 5.6h-2.1l4.7-21.8h2.1c2.3 0 4.8.7 3.7 5.7zm17.7-15.8l-2.2 10.2h9.2L135.7 73h25.1l2.1-10.1h-10.7l17.5-31.8zm34.3 1.3c-.8-.8-1.9-1.3-3.2-1.3s-2.3.4-3.2 1.3-1.3 1.9-1.3 3.2c0 1.3.5 2.4 1.3 3.2s1.9 1.3 3.2 1.3 2.3-.4 3.2-1.3 1.3-1.9 1.3-3.2-.4-2.4-1.3-3.2zm-.6 5.8c-.7.7-1.5 1-2.5 1s-1.8-.3-2.5-1-1-1.5-1-2.5c0-1.1.3-1.9 1-2.6.7-.7 1.5-1 2.5-1s1.8.3 2.5 1 1 1.6 1 2.6c.1.9-.3 1.8-1 2.5z"/><path class="st0" d="M179.2 34.8c0-.4-.2-.8-.5-1-.3-.3-.7-.4-1.2-.4h-1.9v4.1h.9v-1.3h.7l1.2 1.3h1.1l-1.3-1.4c.7-.2 1-.6 1-1.3zm-1.6.6h-1v-1.2h1c.5 0 .8.2.8.6 0 .2 0 .3-.2.4-.2.1-.4.2-.6.2z"/></svg>