<?xml version="1.0" encoding="utf-8"?>
<!-- Generator: Adobe Illustrator 24.0.2, SVG Export Plug-In . SVG Version: 6.00 Build 0)  -->
<svg version="1.1" id="Layer_1" xmlns="http://www.w3.org/2000/svg" xmlns:xlink="http://www.w3.org/1999/xlink" x="0px" y="0px"
	 viewBox="0 0 1136.75 427.57" style="enable-background:new 0 0 1136.75 427.57;" xml:space="preserve">
<style type="text/css">
	.st0{fill:#FFFFFF;}
	.st1{fill:#F20574;}
	.st2{fill:#8C0C52;}
	.st3{fill:#C10865;}
	.st4{opacity:0.5;fill:#6B0B44;}
	.st5{opacity:0.5;fill:#8C0C52;}
</style>
<g>
	<g>
		<path class="st0" d="M92.04,165.35c-8.95,0.89-17.9,5.14-17.9,21.7v105.68c0,16.56,8.95,20.81,17.9,21.7v4.68H21.58v-4.68
			c9.17-0.89,17.89-5.14,17.89-21.7V187.05c0-16.56-8.72-20.81-17.89-21.7v-5.12h70.46V165.35z"/>
		<path class="st0" d="M153.89,319.1H97.08v-4.68c7.16-0.67,14.54-4.47,14.54-17.67v-50.87c0-13.86-7.6-17.45-16.33-17v-4.83
			l44.51-11.01l1.8,0.67v15.93c9.39-10.29,23.03-17.05,37.13-17.05c16.32,0,26.84,9.62,26.84,28.18v55.98
			c0,13.19,7.16,17,14.77,17.67v4.68h-57.04v-4.45c7.61-0.67,11.86-5.14,11.86-18.34v-49.48c0-14.54-4.93-20.58-13.87-20.58
			c-6.49,0-13.64,4.03-19.23,9.84v60.23c0,13.19,4.7,17.67,11.85,18.34V319.1z"/>
		<path class="st0" d="M259.15,222.6v66.5c0,10.29,3.26,14.99,9.98,14.99c5.14,0,10.12-3.42,14.59-9.9l2.94,2.29
			c-9.4,16.55-22.15,25.06-34.67,25.06c-14.32,0-23.27-11.18-23.27-25.73v-74.71h-14.31v-4.2c17.67-4.92,35.12-22.65,41.6-45.23
			h3.13v44.13h24.83v6.81H259.15z"/>
		<path class="st0" d="M314.91,253.3h41.83c-0.21-25.36-8.12-34.76-18.83-34.76C324.32,218.54,316.03,231.52,314.91,253.3
			 M337.91,321.75c-27.51,0-48.76-22.6-48.76-52.56c0-33.11,24.6-56.6,50.32-56.6c23.27,0,42.77,19.77,43.66,47.5h-68.22
			c0,30.05,15.69,40.63,35.82,40.63c11.63,0,21.53-5.98,27.8-16.72l3.21,1.51C375.04,309.23,358.48,321.75,337.91,321.75"/>
		<path class="st0" d="M445.14,319.1h-59.05v-4.68c7.38-0.67,14.76-4.25,14.76-17.44v-51.09c0-13.65-7.38-17.45-16.33-17v-4.83
			l44.51-11.01l1.8,0.67v24.43c7.6-18.34,20.8-26.9,31.53-26.9c9.4,0,14.77,6.72,14.77,14.77c0,8.27-5.81,14.76-14.1,14.76
			c-9.39,0-12.75-7.86-19.23-7.86c-5.37,0-9.39,6.72-12.52,16.11v47.28c0,13.19,6.26,17.67,13.86,18.34V319.1z"/>
		<path class="st0" d="M611.78,208.27c-4.7-27.74-22.17-44.26-43.87-44.26c-24.61,0-46.75,23.09-46.75,68.72
			c0,46.08,23.03,68.89,53.68,68.89c17.9,0,32.87-8.99,42.27-25.55l5.15,1.84c-9.62,25.72-31.54,44.06-61.96,44.06
			c-44.29,0-76.05-37.35-76.05-80.75c0-48.99,34.89-83.65,83.42-83.65c19.91,0,45.2,7.5,55.92,16.86l-8.01,34.28L611.78,208.27z"/>
		<path class="st0" d="M683.84,300.58c-0.14-1.15-0.27-2.32-0.27-4.55v-34.82c-21.48,8.95-26.84,18.04-26.84,29.9
			c0,12.08,5.93,16.75,13.31,16.75C674.51,307.86,679.14,305.06,683.84,300.58 M684.75,306.33c-9.17,10.29-20.65,15.42-31.83,15.42
			c-13.87,0-25.95-8.72-25.95-23.7c0-15.44,11.18-28.63,56.6-42.5v-17.45c0-16.1-4.03-20.39-11.64-20.39
			c-8.72,0-9.17,6.08-12.3,18.61c-2.24,8.95-8.05,13.19-14.77,13.19c-7.38,0-12.75-5.37-12.75-12.97
			c0-12.97,14.32-23.94,40.71-23.94c28.19,0,41.38,12.98,41.38,34.9v48.98c0,8.05,2.25,11.85,6.93,11.85c2.85,0,5.98-3.03,9.33-7.96
			l2.76,2.37c-7.38,12.75-17,18.35-28.19,18.35C694.98,321.08,687.66,316.61,684.75,306.33"/>
		<path class="st0" d="M795.56,302.96c0-23.94-55.7-19.91-55.7-57.26c0-17.68,13.65-33.11,40.27-33.11
			c12.97,0,25.49,3.14,34.44,8.51l-7.59,25.94l-3.16-0.22c-2.59-19.4-15.19-27.98-27.26-27.98c-10.97,0-17.45,4.05-17.45,12.1
			c0,24.61,58.38,21.48,58.38,57.93c0,19.46-15.22,32.88-42.27,32.88c-14.32,0-30.2-3.8-38.48-8.5l8.51-29.29l2.46,0.21
			c2.68,20.81,14.54,31.3,29.53,31.3C788.85,315.47,795.56,311.68,795.56,302.96"/>
		<path class="st0" d="M823.63,319.1v-4.68c7.16-0.67,14.54-2.74,14.54-15.93v-52.61c0-13.86-7.6-17.45-16.32-17v-4.83l45.4-11.01
			l1.79,0.67L868.59,241v57.49c0,13.19,7.6,15.26,14.99,15.93v4.68H823.63z"/>
		<path class="st1" d="M852.94,163.34c10.51,0,18.78,8.05,18.78,18.35c0,9.84-8.27,18.11-18.78,18.11
			c-10.07,0-18.35-8.27-18.35-18.11C834.59,171.39,842.86,163.34,852.94,163.34"/>
		<path class="st0" d="M945.69,319.1h-56.82v-4.68c7.16-0.67,14.54-2.74,14.54-15.93v-52.61c0-13.86-7.6-17.45-16.33-17v-4.83
			l44.51-11.01l1.8,0.67v15.93c9.39-10.29,23.03-17.05,37.13-17.05c16.32,0,26.84,9.62,26.84,28.18v57.71
			c0,13.19,7.17,15.26,14.77,15.93v4.68h-57.04v-4.45c7.61-0.67,11.85-3.41,11.85-16.6v-51.22c0-14.54-4.92-20.58-13.86-20.58
			c-6.49,0-13.64,4.03-19.23,9.84v61.96c0,13.19,4.7,15.93,11.85,16.6V319.1z"/>
		<path class="st0" d="M1065.63,317.03c10.29,0,20.35-10.72,20.35-49.42c0-30.83-8.05-50.3-21.25-50.3
			c-10.06,0-19.68,11.59-19.68,49.42C1045.05,296.91,1052.87,317.03,1065.63,317.03 M1012.17,267.62c0-30.2,24.16-55.02,53.46-55.02
			c31.98,0,53.68,23.93,53.68,54.35c0,29.75-23.04,54.8-53.68,54.8C1034.76,321.75,1012.17,298.04,1012.17,267.62"/>
		<g>
			<g>
				<path class="st1" d="M235.55,373.39c0-0.51,0.33-1.12,1-1.84c6.9-4.45,13.73-9.08,20.48-13.88l17.95-12.89
					c0.97-1.12,2.35-1.69,4.14-1.69c1.12,0,2.11,0.28,2.95,0.84c0.84,0.56,1.27,1.38,1.27,2.45c0,1.59-1.24,3.43-3.72,5.52
					c-2.48,2.1-5.04,3.99-7.67,5.68c-2.63,1.69-4.05,2.81-4.26,3.38c0.05,0.2,0.56,1,1.53,2.38c0.97,1.38,1.43,2.48,1.38,3.3
					c0.46,2.3,0.69,4.99,0.69,8.05c0,0.26-0.01,0.65-0.04,1.19c-0.03,0.54-0.04,0.96-0.04,1.27l-0.92,25.54
					c-1.07,0.61-2.15,0.92-3.22,0.92c-1.23,0-2.3-0.37-3.22-1.11c-0.92-0.74-1.48-1.75-1.69-3.03c-0.97-1.43-1.79-3.46-2.45-6.1
					c-0.67-2.63-1.14-4.97-1.42-7.02c-0.28-2.04-0.59-4.93-0.92-8.67c-0.33-3.73-0.58-6.14-0.73-7.21h-0.31
					c-0.41,0-0.91,0.12-1.5,0.35c-0.59,0.23-1.06,0.46-1.42,0.69c-0.36,0.23-0.87,0.58-1.53,1.04c-0.67,0.46-1.07,0.74-1.23,0.84
					c-0.61,0.41-1.99,0.82-4.14,1.23c-2.15,0.41-4.17,0.61-6.06,0.61C237.18,375.23,235.55,374.62,235.55,373.39z"/>
				<path class="st1" d="M335.42,351.3c0-0.2,0.31-0.49,0.92-0.84c0.36-0.26,0.66-0.91,0.92-1.96c0.26-1.05,0.66-1.65,1.23-1.8h0.15
					c0.1-0.05,0.18-0.08,0.23-0.08c0.36,0,1.1,0.26,2.22,0.77c1.28,0.67,2.91,1.71,4.91,3.15c6.03,4.3,9.05,7.16,9.05,8.59
					c0,0.72-0.69,1.07-2.07,1.07c-6.7,0-12.38-2.63-17.03-7.9C335.59,351.89,335.42,351.56,335.42,351.3z M339.25,390.19
					c0.15-1.79,1.35-2.68,3.61-2.68c1.18,0,2.35,0.23,3.53,0.69c1.18,0.46,1.99,0.97,2.45,1.53l1.3,1.3l2.07-2.45
					c0.77-0.97,2.66-3.38,5.68-7.21c3.02-3.84,5.16-6.53,6.44-8.09c1.28-1.56,3.3-3.96,6.06-7.21c2.76-3.25,5.05-5.8,6.87-7.67
					c1.81-1.87,3.98-3.92,6.48-6.17c2.51-2.25,4.88-4.17,7.13-5.75c0,0.15-0.01,0.32-0.04,0.5c-0.03,0.18-0.04,0.32-0.04,0.42
					c0,0.1,0.04,0.22,0.11,0.35c0.08,0.13,0.19,0.27,0.35,0.42l-34.06,55c-0.26,0.46-1.01,0.89-2.26,1.3
					c-1.25,0.41-2.44,0.61-3.57,0.61c-1.07,0-1.82-0.2-2.22-0.61c-1.84-0.51-3.86-2.4-6.06-5.68
					C340.89,395.51,339.61,392.65,339.25,390.19z"/>
				<path class="st1" d="M433.67,373.39c0-1.12,0.51-3.27,1.53-6.44c1.53-4.6,3.58-9.46,6.14-14.57c1.07-2.1,1.99-3.81,2.76-5.14
					c1.43-2.45,2.92-3.78,4.45-3.99c0.66-0.05,1.84-0.13,3.53-0.23c1.89-0.05,3.27-0.14,4.14-0.27c0.87-0.13,1.99-0.19,3.37-0.19
					h3.14c7.87,0.26,13.68,0.9,17.41,1.92c3.89,1.07,6.34,2.66,7.36,4.76c0.41,0.82,0.61,1.97,0.61,3.45c0,1.59-0.26,3.32-0.77,5.22
					c-0.97,3.68-2.56,7.59-4.76,11.74c-2.45,4.6-4.86,8.77-7.21,12.5c-2.2,3.43-4.68,7.06-7.44,10.89
					c-2.25,3.12-4.04,5.45-5.37,6.98c-1.13,1.28-1.69,2.1-1.69,2.45c0,0.77-0.59,1.23-1.76,1.38c-0.1,0-0.23,0.01-0.38,0.04
					c-0.15,0.03-0.26,0.04-0.31,0.04c-1.18,0-2.11-0.41-2.8-1.23c-0.69-0.82-1.04-1.89-1.04-3.22v-0.54
					c0.05-2.1,0.28-3.86,0.69-5.29c0.41-1.64,1.35-4.24,2.84-7.82c1.64-4.09,2.38-6.16,2.22-6.21l-16.18-9.13l-0.77,1.46
					c-0.46,0.92-1.28,1.79-2.45,2.61c-1.18,0.82-2.38,1.33-3.61,1.53c-0.1,0-0.22,0.01-0.35,0.04c-0.13,0.03-0.22,0.04-0.27,0.04
					c-0.72,0-1.41-0.26-2.07-0.77C434.01,374.88,433.67,374.21,433.67,373.39z M450.32,362.73c0,1.13,0.96,2.19,2.88,3.18
					c1.92,1,4.09,1.91,6.52,2.72c2.43,0.82,3.92,1.46,4.49,1.92l5.83-12.73l1.84-4.76l-1.3-0.38c-0.82-0.2-3.37-0.36-7.67-0.46
					h-1.15c-0.67-0.2-1.38-0.31-2.15-0.31c-1.64,0-2.99,0.58-4.07,1.73c-1.07,1.15-2.02,2.62-2.84,4.41
					c-0.82,1.79-1.48,2.97-1.99,3.53C450.45,361.99,450.32,362.37,450.32,362.73z"/>
				<path class="st1" d="M529.17,373.62c0-1.07,0.88-2.06,2.65-2.95c1.76-0.89,4.23-1.6,7.4-2.11c3.02-0.41,9.58-1.35,19.67-2.84
					c10.1-1.48,17.78-2.58,23.05-3.3c5.52,0.92,9.02,2.97,10.51,6.14c-2.71,2.2-9.45,4.51-20.21,6.94
					c-10.77,2.43-20.03,3.64-27.81,3.64c-3.48,0-6.21-0.28-8.21-0.84C531.52,376.97,529.17,375.41,529.17,373.62z"/>
				<path class="st1" d="M633.64,361.81c0-0.72,1.01-1.3,3.03-1.76c2.02-0.46,4.41-1.01,7.17-1.65c2.76-0.64,4.78-1.47,6.06-2.49
					l0.23-0.46c0.15-0.36,0.41-0.96,0.77-1.8c0.36-0.84,0.74-1.73,1.15-2.65c0.46-1.02,0.93-2.39,1.42-4.1
					c0.49-1.71,0.89-3.07,1.23-4.07c0.33-1,0.98-1.89,1.96-2.68c0.97-0.79,2.25-1.19,3.84-1.19c1.18,0,2.27,0.13,3.3,0.38
					c1.48,0.92,2.56,1.74,3.22,2.45c0.66,0.72,1,1.59,1,2.61c0,1.28-0.64,2.97-1.92,5.06c-1.48,2.35-2.22,3.63-2.22,3.84
					c0,0.26,0.23,0.38,0.69,0.38s2.73-0.38,6.83-1.15c0.82-0.15,1.89-0.37,3.22-0.65c1.33-0.28,2.34-0.49,3.03-0.61
					c0.69-0.13,1.52-0.26,2.49-0.38c0.97-0.13,1.87-0.19,2.68-0.19c1.43,0,2.76,0.13,3.99,0.38c2.61,1.18,3.91,2.56,3.91,4.14
					c0,0.87-0.81,2.7-2.42,5.48c-1.61,2.79-2.49,5.28-2.65,7.48c-0.61,1.84-1.56,5.01-2.84,9.51c-1.28,4.5-2.48,8.54-3.6,12.12
					c-1.13,3.58-2.17,6.44-3.15,8.59c-0.92,0.92-1.97,1.38-3.14,1.38c-1.23,0-2.28-0.52-3.14-1.57c-0.87-1.05-1.3-2.34-1.3-3.87
					c0-0.41,0.03-0.72,0.08-0.92c-0.26-0.87-0.38-2.17-0.38-3.91c0-3.12,0.74-8.36,2.22-15.72c1.48-7.36,2.3-11.53,2.45-12.5h-0.08
					c-0.31,0-1.48,0.27-3.53,0.81c-2.05,0.54-4.02,1.11-5.91,1.73c-1.89,0.61-2.79,0.97-2.68,1.07c-1.18,2.56-2.54,6.02-4.1,10.39
					c-1.56,4.37-2.93,8.16-4.1,11.35c-1.18,3.2-2.76,6.56-4.76,10.09c-1.99,3.53-4.19,6.37-6.6,8.51c-0.77,0.26-1.36,0.38-1.76,0.38
					c-1.43,0-2.15-1.05-2.15-3.14c0-1.43,0.15-3.48,0.46-6.14c0.31-2.66,0.61-4.5,0.92-5.52l7.36-22.63
					c0.15-0.31,0.23-0.54,0.23-0.69c0-0.51-0.49-0.83-1.46-0.96c-0.97-0.13-2.24-0.27-3.8-0.42c-1.56-0.15-2.8-0.49-3.72-1
					C634.82,363.78,633.64,362.68,633.64,361.81z"/>
				<path class="st1" d="M733.28,359.2c0-0.2,0.03-0.37,0.08-0.5c0.05-0.13,0.14-0.23,0.27-0.31c0.13-0.08,0.24-0.14,0.35-0.19
					c0.1-0.05,0.31-0.13,0.61-0.23c0.31-0.1,0.56-0.18,0.77-0.23c0.92-0.31,1.89-0.46,2.91-0.46c0.61,0,1.1,0.03,1.46,0.08
					c1.84,0.26,4.06,0.84,6.67,1.76c4.6,1.59,7.49,2.76,8.67,3.53c1.33,0.82,2.12,2.1,2.38,3.84v0.69c0,1.64-0.95,2.45-2.84,2.45
					c-1.48,0-3.43-0.36-5.83-1.07c-5.22-1.53-9.03-2.89-11.43-4.07c-2.45-1.23-3.68-2.04-3.68-2.45c0-0.1-0.06-0.51-0.19-1.23
					C733.35,360.1,733.28,359.56,733.28,359.2z M734.28,341.79c0-1.07,1.1-1.61,3.3-1.61c2.04,0,4.53,0.46,7.44,1.38
					c3.84,1.18,7.29,2.79,10.36,4.83c3.17,2.15,4.76,4.32,4.76,6.52c0,1.79-0.97,2.68-2.92,2.68c-2.1,0-4.99-0.86-8.67-2.57
					c-3.68-1.71-6.93-3.44-9.74-5.18c-2.45-1.48-3.68-2.5-3.68-3.07c0-0.82-0.15-1.46-0.46-1.92
					C734.41,342.46,734.28,342.1,734.28,341.79z M746.78,402.85c0-1.84,1.46-5.55,4.37-11.12l22.78-32.06
					c0.92-0.46,2.04-0.69,3.38-0.69c1.12,0,2.43,0.15,3.91,0.46c1.28,0.31,2.13,0.68,2.57,1.11c0.43,0.44,0.86,1.24,1.27,2.42
					c0.1,0.2,0.15,0.54,0.15,1c0,1.38-0.79,2.84-2.38,4.37c-2.81,2.81-6.88,8.21-12.2,16.18c-5.37,7.98-9.95,12.91-13.73,14.8
					c-0.36,0.15-1.07,0.77-2.15,1.84c-3.12,2.35-5.32,3.53-6.6,3.53C747.24,404.69,746.78,404.08,746.78,402.85z M777.31,342.94
					v-0.38c0.61-0.77,1.53-1.15,2.76-1.15c1.74,0,3.48,0.59,5.22,1.76c0.72,0.51,1.32,1.46,1.8,2.84c0.49,1.38,0.73,2.79,0.73,4.22
					c0,2.56-0.69,4.22-2.07,4.99c-0.21,0.1-0.36,0.15-0.46,0.15c-1.23,0-2.86-1.66-4.91-4.99
					C778.33,347.06,777.31,344.58,777.31,342.94z M789.66,339.72c0-0.72,0.59-1.12,1.76-1.23h0.38c1.33,0,2.77,0.46,4.33,1.38
					c1.56,0.92,2.57,1.94,3.03,3.07c0.46,0.97,0.69,1.94,0.69,2.91c0,1.38-0.43,2.58-1.3,3.61c-0.87,1.02-1.92,1.53-3.14,1.53
					c-0.61,0-1.07-0.05-1.38-0.15l-3.84-8.59l-0.46-2.07c0-0.05-0.01-0.13-0.04-0.23C789.67,339.85,789.66,339.77,789.66,339.72z"/>
				<path class="st1" d="M840.21,403.77l19.64-34.67c0.66-0.92,1.83-3.32,3.49-7.21c1.66-3.89,2.62-6.44,2.88-7.67
					c0.56-0.92,0.96-2.63,1.19-5.14c0.23-2.5,0.68-4.59,1.34-6.25c0.66-1.66,1.92-2.49,3.76-2.49c0.71,0,1.46,0.1,2.22,0.31h0.77
					c2.4,0,4.58,1.13,6.52,3.38c0.71,2.2,1.07,4.5,1.07,6.9c0,3.02-0.66,6.19-1.99,9.51c-1.33,3.32-2.7,6.02-4.1,8.09
					c-1.41,2.07-3.39,4.77-5.94,8.09c-2.56,3.32-4.22,5.55-4.99,6.67l-8.28,11.51c-1.07,1.33-1.94,2.39-2.61,3.18
					c-0.67,0.79-1.73,1.92-3.18,3.38c-1.46,1.46-2.97,2.57-4.53,3.34c-1.56,0.77-3.08,1.15-4.56,1.15c-0.92,0-1.74-0.13-2.45-0.38
					c-0.15-0.05-0.18-0.31-0.08-0.77C840.47,404.23,840.41,403.92,840.21,403.77z"/>
			</g>
		</g>
		<g>
			<polygon points="650.75,162.1 650.75,162.1 650.75,162.1 			"/>
		</g>
	</g>
	<g>
		<path class="st2" d="M652.31,162.1l0.14-0.77l22.03-120.15c0,0,0.01,0,0.01,0.01l1.59-8.67c0,0,0,0,0,0
			c-0.54,0.17-1.04,0.42-1.49,0.75c-0.45,0.35-0.79,0.7-0.79,0.7l-0.07,0.07l-54.23,54.21l-0.01-0.01l-5.85,3.38L652.31,162.1z"/>
		<path class="st3" d="M640.41,155.18l11.35,9.91l4.85-26.44l-37.12-50.41l0,0l-46.61-63.27l-1.92-2.63l0,0l0,0l-0.55-0.75h-0.01
			c-0.17-0.26-0.37-0.5-0.57-0.75l-0.01-0.02h0c-0.18-0.21-0.38-0.42-0.59-0.62c-0.32-0.31-0.69-0.62-1.1-0.91
			c-0.02-0.02-0.05-0.03-0.07-0.05c-0.12-0.08-0.25-0.16-0.37-0.24c-1.24-0.73-2.62-1.11-4.01-1.14c-2.29,0.03-3.94,0.85-5.02,1.64
			c-0.16,0.12-0.32,0.25-0.48,0.38c-0.02,0.02-0.04,0.03-0.06,0.05c-0.21,0.19-0.42,0.4-0.62,0.61c-0.14,0.16-0.28,0.32-0.4,0.49
			l-1.79,2.62l-5.66,8.4l-39.79,58.25l-0.04,0.05l-3,7.64l19.33,41.47c12.85-4.9,26.88-7.47,41.54-7.47
			C590.64,132.01,622.99,139.97,640.41,155.18z"/>
		<path class="st1" d="M482.31,171.19c2.3-2.87,4.76-5.62,7.38-8.24c16.55-16.55,38.43-26.93,62.72-29.99l-42.59-42.59l0,0v0
			l-20.49-19.05c-0.12-0.11-0.24-0.22-0.35-0.33l-2.24-2.08c-0.71-0.66-1.43-1.33-2.15-2l-2.85-2.65c-0.13-0.12-0.26-0.24-0.38-0.36
			l-1.57-1.46c-12.55-11.67-24.45-22.73-25.24-23.46c-0.64-0.59-1.22-0.97-1.69-1.2c-0.41-0.19-0.84-0.32-1.28-0.39h0L482.31,171.19
			z"/>
		<polygon class="st4" points="623.99,83.74 619.49,88.24 656.61,138.65 		"/>
		<polygon class="st5" points="514.1,84.1 509.82,90.37 552.41,132.96 		"/>
	</g>
</g>
</svg>
