<?xml version="1.0" encoding="UTF-8"?>
<svg xmlns="http://www.w3.org/2000/svg" xmlns:xlink="http://www.w3.org/1999/xlink" width="151px" height="41px" viewBox="0 0 151 41">
  <!-- Generator: Sketch 42 (36781) - http://www.bohemiancoding.com/sketch -->
  <title>Untitled</title>
  <desc>Created with Sketch.</desc>
  <defs></defs>
  <g id="Page-1" stroke="none" stroke-width="1" fill="none" fill-rule="evenodd">
    <g id="logoFull" fill-rule="nonzero">
      <circle id="Oval" fill="#FFFFFF" cx="20.17" cy="20.37" r="19.33"></circle>
      <path d="M52.75,8.62 C52.75,6.72 51.75,6.85 50.82,6.83 L50.82,6.28 L53.3,6.28 L56.95,6.28 C62.4,6.28 65.37,9.92 65.37,13.65 C65.37,15.74 64.15,20.98 56.69,20.98 L53.69,20.98 L50.87,20.98 L50.87,20.43 C52.13,20.31 52.74,20.27 52.8,18.83 L52.75,8.62 Z M54.82,18.5 C54.82,20.12 55.98,20.31 57.01,20.31 C61.56,20.31 63.01,16.88 63.01,13.74 C63.05,9.8 60.53,7 56.46,7 L54.82,7 L54.82,18.5 Z" id="Shape" fill="#1D1D1B"></path>
      <path d="M66.11,20.43 L66.51,20.43 C67.1,20.43 67.51,20.43 67.51,19.74 L67.51,14 C67.51,13.07 67.19,13 66.41,12.53 L66.41,12.19 C67.41,11.89 68.58,11.5 68.67,11.43 C68.7858868,11.3643642 68.9168167,11.329909 69.05,11.33 C69.15,11.33 69.19,11.45 69.19,11.62 L69.19,19.71 C69.19,20.4 69.66,20.4 70.25,20.4 L70.6,20.4 L70.6,21 L68.39,21 L66.1,21 L66.11,20.43 Z M68.36,8.11 C67.8224959,8.07584909 67.3941509,7.6475041 67.36,7.11 C67.3941509,6.5724959 67.8224959,6.14415091 68.36,6.11 C68.9122847,6.11 69.36,6.55771525 69.36,7.11 C69.334774,7.65149178 68.9014918,8.08477398 68.36,8.11 Z" id="Shape" fill="#1D1D1B"></path>
      <path d="M72.62,14.16 C72.62,13.38 72.39,13.16 71.4,12.77 L71.4,12.37 C72.3,12.07 73.16,11.8 74.18,11.37 C74.24,11.37 74.3,11.37 74.3,11.57 L74.3,12.95 C75.3195058,12.0191039 76.6229863,11.4589596 78,11.36 C79.79,11.36 80.42,12.66 80.42,14.3 L80.42,19.74 C80.42,20.43 80.88,20.43 81.42,20.43 L81.8,20.43 L81.8,21 L79.57,21 L77.29,21 L77.29,20.45 L77.67,20.45 C78.26,20.45 78.67,20.45 78.67,19.76 L78.67,14.29 C78.67,13.08 77.94,12.49 76.74,12.49 C75.8548602,12.6216839 75.0144788,12.9646967 74.29,13.49 L74.29,19.72 C74.29,20.41 74.76,20.41 75.35,20.41 L75.73,20.41 L75.73,21 L73.49,21 L71.23,21 L71.23,20.45 L71.61,20.45 C72.2,20.45 72.61,20.45 72.61,19.76 L72.62,14.16 Z" id="Shape" fill="#1D1D1B"></path>
      <path d="M83.4,15.17 C83.3552486,15.5754355 83.3552486,15.9845645 83.4,16.39 C83.53,18.39 84.81,20.04 86.5,20.04 C87.6020354,19.9787649 88.6297906,19.4648873 89.34,18.62 L89.64,18.92 C88.7996608,20.2956267 87.3476475,21.1817272 85.74,21.3 C82.39,21.3 81.74,18.05 81.74,16.71 C81.74,12.58 84.52,11.36 85.99,11.36 C86.9063727,11.2994645 87.8072406,11.6189211 88.480755,12.2432462 C89.1542693,12.8675713 89.5409989,13.7416741 89.55,14.66 C89.5602143,14.7864607 89.5602143,14.9135393 89.55,15.04 L89.36,15.17 L83.4,15.17 Z M87.13,14.49 C87.66,14.49 87.72,14.22 87.72,13.97 C87.7753585,13.4571288 87.6055004,12.9454655 87.254416,12.5675222 C86.9033316,12.1895789 86.4055543,11.9825308 85.89,12 C84.6,12 83.72,13 83.47,14.46 L87.13,14.49 Z" id="Shape" fill="#1D1D1B"></path>
      <path d="M90,20.43 L90.57,20.43 C91.16,20.43 91.57,20.43 91.57,19.74 L91.57,13.82 C91.57,13.17 90.8,13.04 90.48,12.82 L90.48,12.51 C92.02,11.85 92.86,11.31 93.05,11.31 C93.24,11.31 93.24,11.37 93.24,11.58 L93.24,13.48 L93.24,13.48 C93.77,12.66 94.65,11.31 95.94,11.31 C96.246743,11.2964748 96.5461572,11.4061756 96.7715558,11.6146694 C96.9969545,11.8231631 97.1296184,12.1131346 97.14,12.42 C97.1623758,12.6987824 97.0669824,12.9741957 96.8769662,13.1794132 C96.6869501,13.3846306 96.4196775,13.5008965 96.14,13.5 C95.48,13.5 95.48,12.99 94.75,12.99 C93.872966,13.1093146 93.2168389,13.8549136 93.21,14.74 L93.21,19.69 C93.21,20.38 93.63,20.38 94.21,20.38 L95.39,20.38 L95.39,21 L92.39,21 L89.89,21 L90,20.43 Z" id="Shape" fill="#1D1D1B"></path>
      <path d="M98.12,18.05 C98.4,19.44 99.24,20.63 100.78,20.63 C101.211834,20.6915384 101.648947,20.5607583 101.976024,20.2721609 C102.303101,19.9835636 102.48729,19.5661361 102.48,19.13 C102.48,16.64 97.89,17.44 97.89,14.05 C97.89,12.87 98.89,11.36 101.16,11.36 C101.995684,11.3803311 102.816028,11.5888352 103.56,11.97 L103.71,14.12 L103.22,14.12 C103.210161,13.5308559 102.96007,12.9713027 102.527684,12.5710154 C102.095299,12.170728 101.518153,11.9644552 100.93,12 C100.524782,11.9554623 100.119012,12.078897 99.8072387,12.3415423 C99.4954655,12.6041876 99.3049194,12.9831043 99.28,13.39 C99.28,15.86 104.17,15.1 104.17,18.39 C104.17,19.78 103.05,21.26 100.55,21.26 C99.6575215,21.2428487 98.7825152,21.0095137 98,20.58 L97.77,18.16 L98.12,18.05 Z" id="Shape" fill="#1D1D1B"></path>
      <path d="M123.19,10.09 L122.66,10.09 C122.26,7.63 120.51,6.64 118.16,6.64 C115.81,6.64 112.16,8.26 112.16,13.31 C112.16,17.57 115.16,20.63 118.44,20.63 C120.573797,20.6553816 122.401851,19.1085668 122.73,17 L123.21,17.13 L122.73,20.2 C121.269259,20.8871032 119.683442,21.2682438 118.07,21.32 C113.14,21.32 110.07,18.14 110.07,13.4 C110,9.06 113.88,6 118,6 C119.718221,6.08635019 121.409131,6.46511384 123,7.12 L123.19,10.09 Z" id="Shape" fill="#1D1D1B"></path>
      <path d="M124,20.43 L124.4,20.43 C124.99,20.43 125.4,20.43 125.4,19.74 L125.4,8 C125.4,6.63 125.08,6.59 124.28,6.36 L124.28,6 C125.029355,5.76288894 125.755663,5.45830822 126.45,5.09 C126.597188,4.99531509 126.754921,4.91812658 126.92,4.86 C127.04,4.86 127.08,4.99 127.08,5.16 L127.08,19.74 C127.08,20.43 127.55,20.43 128.14,20.43 L128.5,20.43 L128.5,21 L126.28,21 L123.99,21 L124,20.43 Z" id="Shape" fill="#1D1D1B"></path>
      <path d="M137.47,19.82 C137.47,20.2 137.7,20.22 138.06,20.22 L138.91,20.22 L138.91,20.67 C137.895128,20.8112031 136.892304,21.0284818 135.91,21.32 L135.81,21.26 L135.81,19.53 C134.54,20.53 133.57,21.3 132.07,21.3 C131.417052,21.3151882 130.789199,21.0483989 130.346914,20.5678205 C129.904628,20.0872421 129.690771,19.4394453 129.76,18.79 L129.76,13.4 C129.76,12.85 129.68,12.32 128.5,12.22 L128.5,11.82 C129.26,11.82 130.94,11.67 131.21,11.67 C131.48,11.67 131.45,11.82 131.45,12.28 L131.45,17.72 C131.45,18.35 131.45,20.16 133.28,20.16 C134.240489,20.0028853 135.130132,19.5563193 135.83,18.88 L135.83,13.21 C135.83,12.79 134.83,12.56 134.06,12.35 L134.06,12 C135.95,11.87 137.14,11.7 137.34,11.7 C137.54,11.7 137.51,11.85 137.51,12.08 L137.47,19.82 Z" id="Shape" fill="#1D1D1B"></path>
      <path d="M141.66,12.87 C142.509749,12.0316654 143.614598,11.5003527 144.8,11.36 C147.25,11.36 148.72,13.49 148.72,15.78 C148.72,18.54 146.72,21.3 143.72,21.3 C142.700737,21.296309 141.697999,21.0421906 140.8,20.56 L140.17,21.04 L139.73,20.81 C139.917915,19.5687365 140.01484,18.3153966 140.02,17.06 L140.02,8 C140.02,6.63 139.7,6.59 138.9,6.36 L138.9,6 C139.624391,5.76865113 140.327085,5.47418864 141,5.12 C141.147188,5.02531509 141.304921,4.94812658 141.47,4.89 C141.59,4.89 141.63,5.02 141.63,5.19 L141.66,12.87 Z M141.66,18.6 C141.720811,19.7689635 142.660524,20.7000149 143.83,20.75 C146.09,20.75 147.04,18.54 147.04,16.66 C147.04,14.39 145.31,12.49 143.67,12.49 C142.905536,12.5745815 142.196344,12.9291778 141.67,13.49 L141.66,18.6 Z" id="Shape" fill="#1D1D1B"></path>
      <path d="M50.79,33.23 L51,33.23 C51.42,33.23 51.85,33.17 51.85,32.58 L51.85,26.58 C51.85,25.98 51.42,25.93 51,25.93 L50.84,25.93 L50.84,25.58 C51.29,25.58 51.98,25.63 52.54,25.63 C53.1,25.63 53.8,25.58 54.34,25.58 L54.34,25.93 L54.18,25.93 C53.77,25.93 53.33,25.93 53.33,26.58 L53.33,32.58 C53.33,33.17 53.77,33.23 54.18,33.23 L54.34,33.23 L54.34,33.57 L52.53,33.57 L50.84,33.57 L50.79,33.23 Z" id="Shape" fill="#1D1D1B"></path>
      <path d="M54.29,33.62 L52.48,33.62 L52.48,33.62 L50.79,33.62 L50.79,33.62 L50.79,33.18 L51,33.18 C51.42,33.18 51.8,33.18 51.8,32.58 L51.8,32.58 L51.8,26.58 C51.8,26.02 51.42,25.98 51,25.98 L50.79,25.98 L50.79,25.53 L50.79,25.53 C51.24,25.53 51.93,25.58 52.49,25.58 L52.49,25.58 C53.06,25.58 53.75,25.53 54.29,25.53 L54.34,25.53 L54.34,26 L54.13,26 C53.71,26 53.33,26 53.33,26.6 L53.33,26.6 L53.33,32.6 C53.33,33.16 53.71,33.19 54.13,33.2 L54.34,33.2 L54.34,33.64 L54.29,33.62 Z M54.29,33.52 L54.29,33.28 L54.18,33.28 C53.77,33.28 53.28,33.21 53.28,32.58 L53.28,32.58 L53.28,26.58 C53.28,25.95 53.77,25.88 54.18,25.88 L54.29,25.88 L54.29,25.63 C53.76,25.63 53.1,25.68 52.54,25.68 L52.54,25.68 C52,25.68 51.34,25.68 50.89,25.63 L50.89,25.63 L50.89,25.88 L51,25.88 C51.41,25.88 51.9,25.95 51.9,26.58 L51.9,26.58 L51.9,32.58 C51.9,33.21 51.41,33.28 51,33.28 L50.89,33.28 L50.89,33.52 L52.53,33.52 L52.53,33.52 L54.29,33.52 Z" id="Shape" fill="#1D1D1B"></path>
      <path d="M62.16,31.32 L62.16,31.32 L62.16,27 C62.1823758,26.7212176 62.0869824,26.4458043 61.8969662,26.2405868 C61.7069501,26.0353694 61.4396775,25.9191035 61.16,25.92 L60.91,25.92 L60.91,25.57 C61.44,25.57 61.97,25.62 62.51,25.62 C63.05,25.62 63.45,25.57 63.92,25.57 L63.92,25.92 L63.75,25.92 C63.27,25.92 62.75,26.01 62.75,27.37 L62.75,32.59 C62.7421699,32.9779186 62.7655788,33.365838 62.82,33.75 L62.38,33.75 L56.48,27.17 L56.48,31.89 C56.48,32.89 56.67,33.23 57.55,33.23 L57.75,33.23 L57.75,33.57 L56.27,33.57 L54.71,33.57 L54.71,33.23 L54.87,33.23 C55.67,33.23 55.87,32.69 55.87,31.77 L55.87,27 C55.8703429,26.7258887 55.7581505,26.4636536 55.559656,26.2746112 C55.3611614,26.0855689 55.0937686,25.9862942 54.82,26 L54.67,26 L54.67,25.65 C55.11,25.65 55.56,25.7 55.99,25.7 C56.42,25.7 56.67,25.65 56.99,25.65 L62.16,31.32 Z" id="Shape" fill="#1D1D1B"></path>
      <path d="M62.83,33.8 L62.35,33.8 L56.54,27.3 L56.54,31.89 C56.54,32.89 56.7,33.17 57.54,33.18 L57.79,33.18 L57.79,33.62 L57.74,33.62 L56.26,33.62 L56.26,33.62 L54.7,33.62 L54.7,33.62 L54.7,33.18 L54.91,33.18 C55.67,33.18 55.91,32.69 55.91,31.77 L55.91,31.77 L55.91,27 C55.91,26.4477153 55.4622847,26 54.91,26 L54.71,26 L54.71,25.55 L54.71,25.55 C55.15,25.55 55.6,25.6 56.03,25.6 L56.03,25.6 C56.37,25.6 56.7,25.55 57.09,25.6 L57.09,25.6 L62.09,31.27 L62.09,27 C62.09,26.08 61.47,26 61.09,26 L60.78,26 L60.78,25.55 L60.84,25.55 C61.38,25.55 61.9,25.6 62.44,25.6 L62.44,25.6 C62.91,25.6 63.38,25.55 63.85,25.55 L63.85,25.55 L63.85,26 L63.63,26 C63.15,26 62.63,26.05 62.63,27.4 L62.63,27.4 L62.63,32.62 C62.6237325,33.0042534 62.6437794,33.3884851 62.69,33.77 L62.69,33.77 L62.69,33.83 L62.83,33.8 Z M62.39,33.69 L62.77,33.69 C62.7239993,33.3252148 62.703949,32.9576244 62.71,32.59 L62.71,32.59 L62.71,27.37 C62.71,26 63.29,25.87 63.78,25.87 L63.9,25.87 L63.9,25.62 C63.45,25.62 63,25.67 62.54,25.67 L62.54,25.67 C62.02,25.67 61.54,25.67 60.99,25.62 L60.99,25.62 L60.99,25.87 L61.19,25.87 C61.4793572,25.8675431 61.755592,25.9905483 61.9473608,26.2072471 C62.1391296,26.4239458 62.2276282,26.7130893 62.19,27 L62.19,27 L62.19,31.33 L62.19,31.33 L62.19,31.33 L57.09,25.56 C56.75,25.56 56.42,25.61 56.09,25.61 L56.09,25.61 C55.67,25.61 55.24,25.61 54.82,25.56 L54.82,25.56 L54.82,25.81 L54.92,25.81 C55.2265523,25.8084054 55.519339,25.9371621 55.7253611,26.164168 C55.9313833,26.391174 56.0312275,26.6950382 56,27 L56,27 L56,31.82 C56,32.74 55.75,33.33 54.92,33.33 L54.81,33.33 L54.81,33.57 L56.32,33.57 L56.32,33.57 L57.75,33.57 L57.75,33.57 L57.75,33.33 L57.6,33.33 C56.7,33.33 56.48,32.94 56.48,31.94 L56.48,31.94 L56.48,27 L62.48,33.65 L62.39,33.69 Z" id="Shape" fill="#1D1D1B"></path>
      <path d="M65.67,26.15 C64.81,26.15 64.77,26.35 64.6,27.15 L64.26,27.15 C64.26,26.83 64.36,26.51 64.4,26.15 C64.4414901,25.8183044 64.4615318,25.484277 64.46,25.15 L64.74,25.15 C64.83,25.5 65.12,25.48 65.43,25.48 L71.34,25.48 C71.65,25.48 71.94,25.48 71.96,25.13 L72.23,25.13 C72.23,25.44 72.14,25.75 72.11,26.06 C72.08,26.37 72.11,26.68 72.11,26.99 L71.76,27.12 C71.76,26.69 71.68,26.02 70.91,26.02 L69,26.02 L69,32.11 C69,33 69.4,33.11 70,33.11 L70.21,33.11 L70.21,33.45 L68.35,33.45 L66.41,33.45 L66.41,33.11 L66.63,33.11 C67.26,33.11 67.63,33.05 67.63,32.11 L67.63,26.15 L65.67,26.15 Z" id="Shape" fill="#1D1D1B"></path>
      <path d="M70.19,33.62 L68.32,33.62 L68.32,33.62 L66.38,33.62 L66.38,33.62 L66.38,33.18 L66.65,33.18 C67.28,33.18 67.53,33.18 67.55,32.27 L67.55,32.27 L67.55,26.19 L65.67,26.19 L65.67,26.1 L67.6,26.1 L67.6,32.27 C67.6,33.19 67.23,33.27 66.6,33.27 L66.43,33.27 L66.43,33.51 L68.32,33.51 L68.32,33.51 L70.13,33.51 L70.13,33.51 L70.13,33.27 L70,33.27 C69.44,33.27 69,33.14 69,32.27 L69,32.27 L69,26.1 L70.93,26.1 C71.7,26.1 71.8,26.75 71.83,27.18 L71.83,27.18 L72.08,27.09 L72.08,26.18 L72.08,26.18 C72.08,25.8933333 72.12,25.6033333 72.2,25.31 L72.2,25.31 L72.02,25.31 C72.02,25.64 71.65,25.66 71.36,25.65 L65.36,25.65 C65.09,25.65 64.8,25.65 64.69,25.32 L64.5,25.32 C64.5023357,25.6313994 64.4789226,25.9424588 64.43,26.25 L64.43,26.25 C64.43,26.57 64.35,26.87 64.31,27.17 L64.55,27.17 C64.7,26.37 64.8,26.11 65.66,26.17 L65.66,26.17 L65.66,26.26 C64.81,26.26 64.83,26.42 64.66,27.26 L64.66,27.26 L64.66,27.26 L64.2,27.26 L64.2,27.2 C64.2,26.88 64.3,26.56 64.34,26.2 L64.34,26.2 C64.3848339,25.8685209 64.4082159,25.5344926 64.41,25.2 L64.41,25.2 L64.41,25.2 L64.77,25.2 L64.77,25.2 C64.85,25.49 65.06,25.49 65.35,25.49 L71.35,25.49 C71.67,25.49 71.9,25.49 71.92,25.18 L71.92,25.18 L71.92,25.13 L72,25.13 L72.32,25.13 L72.32,25.18 C72.32,25.49 72.23,25.8 72.2,26.1 L72.2,26.1 L72.2,27.03 L72.2,27.03 L72.2,27.03 L72.2,27.03 L71.8,27.18 L71.8,27.11 C71.8,26.68 71.73,26.05 71,26.05 L69.06,26.05 L69.06,32.1 C69.06,32.97 69.42,33.03 69.97,33.04 L70.23,33.04 L70.23,33.48 L70.19,33.62 Z" id="Shape" fill="#1D1D1B"></path>
      <path d="M72.6,33.23 L72.76,33.23 C73.17,33.23 73.61,33.17 73.61,32.58 L73.61,26.58 C73.61,25.98 73.17,25.93 72.76,25.93 L72.6,25.93 L72.6,25.58 C73.3,25.58 74.49,25.63 75.45,25.63 C76.41,25.63 77.61,25.58 78.39,25.58 L78.39,27.34 L78.04,27.43 C78.04,26.68 77.85,26.09 76.65,26.09 L75.08,26.09 L75.08,29.09 L76.44,29.09 C77.13,29.09 77.28,28.7 77.35,28.09 L77.69,28.09 L77.69,29.43 L77.69,30.74 L77.35,30.81 C77.28,30.12 77.24,29.67 76.45,29.67 L75.08,29.67 L75.08,32.34 C75.08,33.09 75.74,33.09 76.47,33.09 C77.85,33.09 78.47,33 78.8,31.69 L79.12,31.77 C78.97,32.38 78.83,32.98 78.73,33.59 L75.65,33.59 L72.6,33.59 L72.6,33.23 Z" id="Shape" fill="#1D1D1B"></path>
      <path d="M78.73,33.62 L75.65,33.62 L75.65,33.62 L72.6,33.62 L72.6,33.62 L72.6,33.18 L72.81,33.18 C73.23,33.18 73.6,33.18 73.61,32.58 L73.61,32.58 L73.61,26.58 C73.61,26.02 73.23,25.99 72.81,25.98 L72.6,25.98 L72.6,25.53 L72.6,25.53 C73.3,25.53 74.49,25.58 75.45,25.58 L75.45,25.58 C76.45,25.58 77.61,25.53 78.39,25.53 L78.39,25.53 L78.39,25.59 L78.39,26.18 L78.39,26.18 L78.39,27.33 L78.39,27.33 L78.39,27.33 L78.39,27.33 L77.99,27.43 L77.99,27.37 C77.92,26.63 77.82,26.09 76.64,26.08 L75.12,26.08 L75.12,29 L76.44,29 C77.1,29 77.22,28.65 77.3,28 L77.3,28 L77.3,28 L77.74,28 L77.74,28.05 L77.74,29.39 L77.74,29.39 L77.74,30.7 L77.74,30.7 L77.74,30.7 L77.74,30.7 L77.34,30.78 L77.34,30.72 C77.26,30.02 77.25,29.64 76.49,29.63 L75.12,29.63 L75.12,32.25 C75.12,32.95 75.73,32.95 76.47,32.95 L76.47,32.95 C77.85,32.95 78.41,32.87 78.75,31.59 L78.75,31.59 L78.75,31.54 L78.75,31.54 L79.12,31.64 L79.12,31.64 C78.97,32.25 78.83,32.86 78.73,33.46 L78.73,33.46 L78.73,33.46 L78.73,33.62 Z M78.73,33.52 C78.83,32.94 78.96,32.36 79.1,31.79 L79.1,31.79 L78.87,31.73 C78.53,33.01 77.87,33.13 76.51,33.12 L76.51,33.12 C75.79,33.12 75.07,33.12 75.06,32.32 L75.06,32.32 L75.06,29.6 L76.49,29.6 C77.29,29.6 77.37,30.08 77.43,30.73 L77.43,30.73 L77.68,30.68 L77.68,29.41 L77.68,29.41 L77.68,28.12 L77.43,28.12 C77.36,28.72 77.18,29.12 76.43,29.12 L75,29.12 L75,26 L76.65,26 C77.84,26 78.04,26.61 78.09,27.32 L78.09,27.32 L78.34,27.26 L78.34,26.14 L78.34,26.14 L78.34,25.59 L78.34,25.59 C77.56,25.59 76.34,25.64 75.45,25.64 L75.45,25.64 C74.51,25.64 73.35,25.64 72.65,25.59 L72.65,25.59 L72.65,25.84 L72.76,25.84 C73.17,25.84 73.66,25.91 73.66,26.54 L73.66,26.54 L73.66,32.54 C73.66,33.17 73.17,33.24 72.76,33.24 L72.65,33.24 L72.65,33.48 L75.65,33.48 L75.65,33.48 L78.65,33.48 L78.73,33.52 Z" id="Shape" fill="#1D1D1B"></path>
      <path d="M80.67,26.79 C80.67,25.95 80.21,25.92 79.85,25.92 L79.65,25.92 L79.65,25.57 C80.01,25.57 80.72,25.62 81.43,25.62 C82.14,25.62 82.66,25.57 83.27,25.57 C84.71,25.57 86,25.96 86,27.57 C85.958918,28.513889 85.3118493,29.3227249 84.4,29.57 L86.4,32.5 C86.617544,32.9189224 87.0479971,33.1841122 87.52,33.19 L87.52,33.53 L86.39,33.53 L85.31,33.53 C84.4329081,32.3491119 83.6377145,31.1095454 82.93,29.82 L82.18,29.82 L82.18,32.27 C82.18,33.16 82.59,33.19 83.11,33.19 L83.32,33.19 L83.32,33.53 L81.32,33.53 L79.66,33.53 L79.66,33.19 L79.86,33.19 C80.29,33.19 80.68,33 80.68,32.57 L80.67,26.79 Z M82.14,29.45 L82.7,29.45 C83.84,29.45 84.46,29.01 84.46,27.66 C84.4901456,27.2093997 84.3235407,26.7678473 84.0032485,26.4494729 C83.6829562,26.1310986 83.2404111,25.9671486 82.79,26 C82.5734925,25.9882553 82.3565075,25.9882553 82.14,26 L82.14,29.45 Z" id="Shape" fill="#1D1D1B"></path>
      <path d="M87.48,33.62 L86.35,33.62 L86.35,33.62 L85.23,33.62 L85.23,33.62 C84.3584897,32.4443013 83.5667171,31.2115415 82.86,29.93 L82.19,29.93 L82.19,32.33 C82.19,33.19 82.54,33.19 83.07,33.2 L83.33,33.2 L83.33,33.64 L83.33,33.64 L81.33,33.64 L81.33,33.64 L79.67,33.64 L79.6,33.64 L79.6,33.2 L79.85,33.2 C80.27,33.2 80.61,33.02 80.62,32.63 L80.62,32.63 L80.62,26.79 C80.62,25.98 80.21,25.98 79.85,25.97 L79.6,25.97 L79.6,25.52 L79.65,25.52 C80.02,25.52 80.73,25.57 81.43,25.57 L81.43,25.57 C82.11,25.57 82.66,25.52 83.27,25.52 L83.27,25.52 C84.71,25.52 86.04,25.93 86.05,27.59 L86.05,27.59 C86.0038982,28.5222065 85.3745979,29.323863 84.48,29.59 L84.48,29.59 L86.4,32.47 C86.6077882,32.8764324 87.0235665,33.134369 87.48,33.14 L87.48,33.14 L87.48,33.58 L87.48,33.62 Z M82.13,29.81 L82.92,29.81 L82.92,29.81 C83.6264868,31.0818936 84.4078614,32.310722 85.26,33.49 L85.26,33.49 L86.34,33.49 L86.34,33.49 L87.42,33.49 L87.42,33.49 L87.42,33.24 C86.9520075,33.2201409 86.5295913,32.9537524 86.31,32.54 L86.31,32.54 L84.31,29.54 L84.37,29.54 C85.2773901,29.2951633 85.9134548,28.4796957 85.93,27.54 L85.93,27.54 C85.93,25.95 84.69,25.54 83.25,25.54 L83.25,25.54 C82.65,25.54 82.09,25.59 81.41,25.59 L81.41,25.59 C80.73,25.59 80.05,25.59 79.68,25.54 L79.68,25.54 L79.68,25.79 L79.83,25.79 C80.19,25.79 80.7,25.85 80.7,26.71 L80.7,26.71 L80.7,32.53 C80.7,32.99 80.27,33.2 79.83,33.2 L79.7,33.2 L79.7,33.44 L81.31,33.44 L81.31,33.44 L83.23,33.44 L83.23,33.44 L83.23,33.2 L83.07,33.2 C82.55,33.2 82.07,33.14 82.07,32.2 L82.07,32.2 L82.07,29.7 L82.13,29.81 Z M82.13,29.5 L82.13,29.5 L82.13,26 L82.13,26 C82.3498474,25.988413 82.5701526,25.988413 82.79,26 L82.79,26 C83.2546392,25.9703126 83.7095901,26.1419709 84.0388096,26.4711904 C84.3680291,26.8004099 84.5396874,27.2553608 84.51,27.72 L84.51,27.72 C84.51,29.09 83.85,29.56 82.7,29.56 L82.13,29.56 L82.13,29.5 Z M82.7,29.4 C83.83,29.4 84.4,28.99 84.41,27.66 L84.41,27.66 C84.4522554,27.2152216 84.2966882,26.7743772 83.9846421,26.4546263 C83.6725961,26.1348754 83.2356766,25.9686038 82.79,26 L82.79,26 C82.5903908,25.9823185 82.3896092,25.9823185 82.19,26 L82.19,26 L82.19,29.4 L82.7,29.4 Z" id="Shape" fill="#1D1D1B"></path>
      <path d="M95.26,31.32 L95.26,31.32 L95.26,27 C95.2823758,26.7212176 95.1869824,26.4458043 94.9969662,26.2405868 C94.8069501,26.0353694 94.5396775,25.9191035 94.26,25.92 L94,25.92 L94,25.57 C94.54,25.57 95.06,25.62 95.6,25.62 C96.14,25.62 96.54,25.57 97.02,25.57 L97.02,25.92 L96.84,25.92 C96.36,25.92 95.84,26.01 95.84,27.37 L95.84,32.59 C95.8321699,32.9779186 95.8555788,33.365838 95.91,33.75 L95.48,33.75 L89.57,27.17 L89.57,31.89 C89.57,32.89 89.77,33.23 90.65,33.23 L90.85,33.23 L90.85,33.57 L89.37,33.57 L87.81,33.57 L87.81,33.23 L88,33.23 C88.79,33.23 89,32.69 89,31.77 L89,27 C89,26.4477153 88.5522847,26 88,26 L87.85,26 L87.85,25.65 C88.28,25.65 88.73,25.7 89.17,25.7 C89.61,25.7 89.84,25.65 90.17,25.65 L95.26,31.32 Z" id="Shape" fill="#1D1D1B"></path>
      <path d="M95.92,33.8 L95.45,33.8 L89.63,27.3 L89.63,31.89 C89.63,32.89 89.8,33.17 90.63,33.18 L90.87,33.18 L90.87,33.62 L90.82,33.62 L89.35,33.62 L89.35,33.62 L87.79,33.62 L87.79,33.62 L87.79,33.18 L88,33.18 C88.75,33.18 89,32.69 89,31.77 L89,31.77 L89,27 C89,26.4477153 88.5522847,26 88,26 L87.8,26 L87.8,25.55 L87.8,25.55 C88.23,25.55 88.68,25.6 89.12,25.6 L89.12,25.6 C89.45,25.6 89.79,25.55 90.12,25.6 L90.12,25.6 L95.12,31.27 L95.12,27 C95.12,26.08 94.5,26 94.12,26 L94,26 L94,25.55 L94,25.55 C94.54,25.55 95.07,25.6 95.6,25.6 L95.6,25.6 C96.07,25.6 96.54,25.55 97.01,25.55 L97.01,25.55 L97.01,26 L96.79,26 C96.32,26 95.79,26.05 95.79,27.4 L95.79,27.4 L95.79,32.62 C95.8299221,32.9983505 95.9001475,33.3728864 96,33.74 L96,33.74 L96,33.8 L95.92,33.8 Z M95.49,33.69 L95.86,33.69 C95.8139993,33.3252148 95.793949,32.9576244 95.8,32.59 L95.8,32.59 L95.8,27.37 C95.8,26 96.38,25.87 96.87,25.87 L97,25.87 L97,25.62 C96.55,25.62 96.1,25.67 95.64,25.67 L95.64,25.67 C95.12,25.67 94.64,25.67 94.09,25.62 L94.09,25.62 L94.09,25.87 L94.29,25.87 C94.5793572,25.8675431 94.855592,25.9905483 95.0473608,26.2072471 C95.2391296,26.4239458 95.3276282,26.7130893 95.29,27 L95.29,27 L95.29,31.33 L95.29,31.33 L95.29,31.33 L90.19,25.56 C89.84,25.56 89.51,25.61 89.19,25.61 L89.19,25.61 C88.76,25.61 88.33,25.61 87.92,25.56 L87.92,25.56 L87.92,25.81 L88,25.81 C88.3030624,25.8140338 88.5904825,25.9452288 88.7920801,26.1715505 C88.9936776,26.3978723 89.090897,26.6984897 89.06,27 L89.06,27 L89.06,31.82 C89.06,32.74 88.8,33.33 87.98,33.33 L87.87,33.33 L87.87,33.57 L89.38,33.57 L89.38,33.57 L90.81,33.57 L90.81,33.57 L90.81,33.33 L90.66,33.33 C89.76,33.33 89.53,32.94 89.53,31.94 L89.53,31.94 L89.53,27 L95.53,33.65 L95.49,33.69 Z" id="Shape" fill="#1D1D1B"></path>
      <path d="M98.89,31.93 C98.7713351,32.2198171 98.6841677,32.5215504 98.63,32.83 C98.63,33.17 99.12,33.23 99.5,33.23 L99.62,33.23 L99.62,33.57 L98.23,33.57 L97,33.57 L97,33.23 L97.06,33.23 C97.5277664,33.2448006 97.943234,32.9331999 98.06,32.48 L99.9,27.23 C100.072168,26.7633768 100.21249,26.2856138 100.32,25.8 C100.670283,25.6738059 101.00563,25.5094856 101.32,25.31 L101.41,25.31 C101.438305,25.2957371 101.471695,25.2957371 101.5,25.31 C101.5,25.4 101.56,25.51 101.6,25.6 L103.71,31.6 C103.84,32 103.98,32.43 104.13,32.77 C104.25014,33.0775732 104.561786,33.2662011 104.89,33.23 L105,33.23 L105,33.57 L103.42,33.57 L101.7,33.57 L101.7,33.23 L101.82,33.23 C102.09,33.23 102.53,33.23 102.53,32.9 C102.487206,32.6150447 102.409975,32.3363389 102.3,32.07 L101.86,30.74 L99.25,30.74 L98.89,31.93 Z M100.56,26.86 L100.56,26.86 L99.47,30.1 L101.61,30.1 L100.56,26.86 Z" id="Shape" fill="#1D1D1B"></path>
      <path d="M105,33.62 L103.43,33.62 L103.43,33.62 L101.71,33.62 L101.71,33.62 L101.71,33.17 L101.88,33.17 C102.15,33.17 102.54,33.11 102.54,32.89 L102.54,32.89 C102.495276,32.6130319 102.421537,32.3415376 102.32,32.08 L102.32,32.08 L101.88,30.78 L99.29,30.78 L98.93,32 C98.821364,32.2855481 98.7377168,32.5799863 98.68,32.88 L98.68,32.88 C98.68,33.16 99.11,33.23 99.5,33.23 L99.67,33.23 L99.67,33.68 L99.67,33.68 L98.28,33.68 L98.28,33.68 L97.05,33.68 L97.05,33.68 L97.05,33.23 L97.16,33.23 C97.6163699,33.2495036 98.0279485,32.9572829 98.16,32.52 L98.16,32.52 L100,27.26 C100.175534,26.7849639 100.325745,26.3009505 100.45,25.81 L100.45,25.81 C100.796274,25.6705778 101.130698,25.5033655 101.45,25.31 L101.45,25.31 L101.55,25.31 L101.55,25.31 C101.601825,25.299126 101.654652,25.3235074 101.68,25.37 L101.68,25.37 C101.68,25.47 101.75,25.57 101.78,25.66 L101.78,25.66 L103.9,31.66 C104.03,32.06 104.17,32.48 104.32,32.82 L104.32,32.82 C104.425635,33.1128444 104.721539,33.2920542 105.03,33.25 L105.15,33.25 L105.15,33.7 L105,33.62 Z M101.76,33.52 L103.43,33.52 L103.43,33.52 L104.96,33.52 L104.96,33.52 L104.96,33.28 L104.96,33.28 C104.611963,33.3110893 104.284015,33.112701 104.15,32.79 L104.15,32.79 C104.01,32.44 103.87,32.02 103.73,31.62 L103.73,31.62 L101.62,25.62 L101.52,25.35 L101.52,25.35 L101.52,25.35 L101.43,25.35 C101.117236,25.5445874 100.781274,25.6991297 100.43,25.81 L100.43,25.81 C100.326526,26.297755 100.182698,26.7760675 100,27.24 L100,27.24 L98.11,32.5 C97.97518,32.9453276 97.5747517,33.2576617 97.11,33.28 L97.11,33.28 L97.11,33.52 L98.29,33.52 L98.29,33.52 L99.63,33.52 L99.63,33.52 L99.63,33.28 L99.5,33.28 C99.12,33.28 98.6,33.28 98.59,32.83 L98.59,32.83 C98.6417066,32.5188521 98.7254865,32.2138932 98.84,31.92 L98.84,31.92 L99.22,30.69 L101.89,30.69 L102.35,32.06 C102.463891,32.3284528 102.541248,32.6109733 102.58,32.9 L102.58,32.9 C102.58,33.25 102.08,33.27 101.82,33.28 L101.75,33.28 L101.75,33.52 L101.76,33.52 Z M99.4,30.15 L100.5,26.81 L100.56,26.81 L100.56,26.86 L100.56,26.86 L100.56,26.81 L100.56,26.81 L101.64,30.15 L99.4,30.15 Z M99.54,30.05 L101.54,30.05 L100.54,26.98 L99.54,30.05 Z" id="Shape" fill="#1D1D1B"></path>
      <path d="M105.5,26.15 C104.64,26.15 104.61,26.35 104.44,27.15 L104.09,27.15 C104.09,26.83 104.19,26.51 104.23,26.15 C104.274834,25.8185209 104.298216,25.4844926 104.3,25.15 L104.57,25.15 C104.66,25.5 104.95,25.48 105.26,25.48 L111.17,25.48 C111.48,25.48 111.77,25.48 111.79,25.13 L112.07,25.13 C112.07,25.44 111.98,25.75 111.94,26.06 C111.9,26.37 111.94,26.68 111.94,26.99 L111.6,27.12 C111.6,26.69 111.52,26.02 110.76,26.02 L108.88,26.02 L108.88,32.11 C108.88,33 109.28,33.11 109.88,33.11 L110,33.11 L110,33.45 L108.14,33.45 L106.2,33.45 L106.2,33.11 L106.42,33.11 C107.05,33.11 107.37,33.05 107.37,32.11 L107.37,26.15 L105.5,26.15 Z" id="Shape" fill="#1D1D1B"></path>
      <path d="M110,33.62 L108.14,33.62 L108.14,33.62 L106.2,33.62 L106.2,33.62 L106.2,33.18 L106.47,33.18 C107.1,33.18 107.35,33.18 107.37,32.27 L107.37,32.27 L107.37,26.19 L105.5,26.19 L105.5,26.1 L107.43,26.1 L107.43,32.27 C107.43,33.19 107.06,33.27 106.43,33.27 L106.26,33.27 L106.26,33.51 L108.15,33.51 L108.15,33.51 L109.97,33.51 L109.97,33.51 L109.97,33.27 L109.81,33.27 C109.25,33.27 108.81,33.14 108.81,32.27 L108.81,32.27 L108.81,26.1 L110.74,26.1 C111.51,26.1 111.61,26.75 111.63,27.18 L111.63,27.18 L111.88,27.09 L111.88,26.19 L111.88,26.19 C111.88,25.89 111.96,25.6 112,25.31 L112,25.31 L111.83,25.31 C111.77,25.64 111.45,25.66 111.16,25.65 L105.16,25.65 C104.89,25.65 104.6,25.65 104.49,25.32 L104.31,25.32 C104.302353,25.6309815 104.27899,25.9413777 104.24,26.25 L104.24,26.25 C104.24,26.57 104.15,26.87 104.11,27.17 L104.35,27.17 C104.5,26.37 104.6,26.11 105.46,26.17 L105.46,26.17 L105.46,26.26 C104.61,26.26 104.63,26.42 104.46,27.26 L104.46,27.26 L104.46,27.26 L104,27.26 L104,27.2 C104,26.88 104.1,26.56 104.14,26.2 L104.14,26.2 C104.184834,25.8685209 104.208216,25.5344926 104.21,25.2 L104.21,25.2 L104.21,25.2 L104.57,25.2 L104.57,25.2 C104.65,25.49 104.86,25.49 105.15,25.49 L111.15,25.49 C111.47,25.49 111.7,25.49 111.72,25.18 L111.72,25.18 L111.72,25.13 L111.78,25.13 L112.1,25.13 L112.1,25.18 C112.1,25.49 112.01,25.8 111.98,26.1 L111.98,26.1 L111.98,27.03 L111.98,27.03 L111.98,27.03 L111.98,27.03 L111.58,27.18 L111.58,27.11 C111.58,26.68 111.5,26.05 110.78,26.05 L108.9,26.05 L108.9,32.1 C108.9,32.97 109.25,33.03 109.8,33.04 L110.06,33.04 L110.06,33.48 L110,33.62 Z" id="Shape" fill="#1D1D1B"></path>
      <path d="M112.49,33.23 L112.65,33.23 C113.06,33.23 113.5,33.17 113.5,32.58 L113.5,26.58 C113.5,25.98 113.06,25.93 112.65,25.93 L112.49,25.93 L112.49,25.58 C112.94,25.58 113.62,25.63 114.18,25.63 C114.74,25.63 115.44,25.58 115.99,25.58 L115.99,25.93 L115.83,25.93 C115.41,25.93 114.97,25.93 114.97,26.58 L114.97,32.58 C114.97,33.17 115.41,33.23 115.83,33.23 L116,33.23 L116,33.57 L114.18,33.57 L112.5,33.57 L112.49,33.23 Z" id="Shape" fill="#1D1D1B"></path>
      <path d="M116,33.62 L114.18,33.62 L114.18,33.62 L112.5,33.62 L112.5,33.62 L112.5,33.18 L112.71,33.18 C113.12,33.18 113.5,33.18 113.5,32.58 L113.5,32.58 L113.5,26.58 C113.5,26.02 113.12,25.98 112.71,25.98 L112.5,25.98 L112.5,25.53 L112.5,25.53 C112.95,25.53 113.63,25.58 114.19,25.58 L114.19,25.58 C114.77,25.58 115.45,25.53 116,25.53 L116,25.53 L116,26 L115.8,26 C115.38,26 115,26 114.99,26.6 L114.99,26.6 L114.99,32.6 C114.99,33.16 115.38,33.19 115.8,33.2 L116,33.2 L116,33.64 L116,33.62 Z M115.94,33.52 L115.94,33.28 L115.84,33.28 C115.42,33.28 114.94,33.21 114.94,32.58 L114.94,32.58 L114.94,26.58 C114.94,25.95 115.42,25.88 115.84,25.88 L115.94,25.88 L115.94,25.63 C115.41,25.63 114.75,25.68 114.19,25.68 L114.19,25.68 C113.65,25.68 112.99,25.68 112.55,25.63 L112.55,25.63 L112.55,25.88 L112.66,25.88 C113.07,25.88 113.56,25.95 113.56,26.58 L113.56,26.58 L113.56,32.58 C113.56,33.21 113.07,33.28 112.66,33.28 L112.55,33.28 L112.55,33.52 L114.18,33.52 L114.18,33.52 L115.94,33.52 Z" id="Shape" fill="#1D1D1B"></path>
      <path d="M120.56,25.4 C123,25.4 124.95,26.92 124.95,29.4 C125.000678,30.5703456 124.561439,31.7088869 123.737862,32.5419523 C122.914285,33.3750176 121.780849,33.8272695 120.61,33.79 C119.480326,33.8698725 118.369739,33.4671386 117.553839,32.68174 C116.73794,31.8963413 116.293205,30.8018963 116.33,29.67 C116.302684,28.5363377 116.738241,27.4404413 117.536312,26.6348239 C118.334382,25.8292064 119.426131,25.3833545 120.56,25.4 Z M120.73,33.24 C122.95,33.24 123.34,31.24 123.34,29.61 C123.34,27.98 122.44,25.91 120.53,25.91 C118.62,25.91 117.93,27.69 117.93,29.23 C117.93,31.28 118.87,33.24 120.73,33.24 L120.73,33.24 Z" id="Shape" fill="#1D1D1B"></path>
      <path d="M116.28,29.63 C116.263672,28.4899463 116.709354,27.391799 117.515577,26.5855766 C118.321799,25.7793543 119.419946,25.3336721 120.56,25.35 L120.56,25.35 L120.56,25.45 C119.444747,25.4309281 118.369417,25.8648635 117.579757,26.6526392 C116.790097,27.4404149 116.353593,28.5147042 116.37,29.63 L116.37,29.63 C116.351268,30.7441689 116.798151,31.8156492 117.602998,32.5863277 C118.407844,33.3570062 119.497691,33.757017 120.61,33.69 L120.61,33.69 C121.767595,33.7273045 122.888337,33.2803304 123.702547,32.4566309 C124.516757,31.6329313 124.950715,30.5070854 124.9,29.35 L124.9,29.35 C124.9,26.94 122.98,25.45 120.56,25.45 L120.56,25.45 L120.56,25.35 C123.02,25.35 124.99,26.88 124.99,29.35 L124.99,29.35 C125.043344,30.5335117 124.601432,31.6857822 123.77038,32.5301155 C122.939328,33.3744489 121.794209,33.8345738 120.61,33.8 L120.61,33.8 C119.471865,33.8611566 118.359442,33.4469432 117.538473,32.6563102 C116.717504,31.8656772 116.261719,30.76963 116.28,29.63 L116.28,29.63 Z M117.88,29.23 C117.88,27.69 118.49,25.85 120.53,25.85 L120.53,25.85 C122.53,25.85 123.39,27.92 123.39,29.61 L123.39,29.61 C123.39,31.28 122.99,33.29 120.73,33.29 L120.73,33.29 L120.73,33.19 C122.91,33.19 123.29,31.28 123.29,29.61 L123.29,29.61 C123.29,27.95 122.4,25.96 120.53,25.96 L120.53,25.96 C118.53,25.96 117.99,27.7 117.98,29.23 L117.98,29.23 C117.98,31.23 118.92,33.23 120.73,33.23 L120.73,33.23 L120.73,33.33 C118.83,33.33 117.89,31.33 117.88,29.27 L117.88,29.23 Z" id="Shape" fill="#1D1D1B"></path>
      <path d="M132.67,31.32 L132.67,31.32 L132.67,27 C132.692376,26.7212176 132.596982,26.4458043 132.406966,26.2405868 C132.21695,26.0353694 131.949678,25.9191035 131.67,25.92 L131.43,25.92 L131.43,25.57 C131.96,25.57 132.49,25.62 133.03,25.62 C133.57,25.62 133.97,25.57 134.44,25.57 L134.44,25.92 L134.27,25.92 C133.78,25.92 133.27,26.01 133.27,27.37 L133.27,32.59 C133.263987,32.9775743 133.284032,33.3651144 133.33,33.75 L132.9,33.75 L127,27.17 L127,31.89 C127,32.89 127.19,33.23 128.07,33.23 L128.27,33.23 L128.27,33.57 L126.79,33.57 L125.23,33.57 L125.23,33.23 L125.39,33.23 C126.19,33.23 126.39,32.69 126.39,31.77 L126.39,27 C126.39,26.4477153 125.942285,26 125.39,26 L125.24,26 L125.24,25.65 C125.68,25.65 126.12,25.7 126.56,25.7 C127,25.7 127.23,25.65 127.56,25.65 L132.67,31.32 Z" id="Shape" fill="#1D1D1B"></path>
      <path d="M133.33,33.8 L132.86,33.8 L127,27.3 L127,31.89 C127,32.89 127.17,33.17 128,33.18 L128.25,33.18 L128.25,33.62 L128.25,33.62 L126.77,33.62 L126.77,33.62 L125.21,33.62 L125.21,33.62 L125.21,33.18 L125.42,33.18 C126.18,33.18 126.42,32.69 126.42,31.77 L126.42,31.77 L126.42,27 C126.42,26.4477153 125.972285,26 125.42,26 L125.22,26 L125.22,25.55 L125.22,25.55 C125.66,25.55 126.11,25.6 126.54,25.6 L126.54,25.6 C126.88,25.6 127.21,25.55 127.6,25.6 L127.6,25.6 L132.6,31.27 L132.6,27 C132.6,26.08 131.99,26 131.65,26 L131.35,26 L131.35,25.55 L131.4,25.55 C131.94,25.55 132.48,25.6 133,25.6 L133,25.6 C133.48,25.6 133.94,25.55 134.42,25.55 L134.42,25.55 L134.42,26 L134.2,26 C133.73,26 133.2,26.05 133.2,27.4 L133.2,27.4 L133.2,32.62 C133.193732,33.0042534 133.213779,33.3884851 133.26,33.77 L133.26,33.77 L133.26,33.83 L133.33,33.8 Z M132.9,33.69 L133.28,33.69 C133.233999,33.3252148 133.213949,32.9576244 133.22,32.59 L133.22,32.59 L133.22,27.37 C133.22,26 133.8,25.87 134.29,25.87 L134.41,25.87 L134.41,25.62 C133.96,25.62 133.5,25.67 133.04,25.67 L133.04,25.67 C132.53,25.67 132.04,25.67 131.49,25.62 L131.49,25.62 L131.49,25.87 L131.69,25.87 C131.987934,25.852477 132.278122,25.9689429 132.481276,26.1875751 C132.68443,26.4062073 132.779313,26.7041521 132.74,27 L132.74,27 L132.74,31.33 L132.74,31.33 L132.74,31.33 L127.64,25.56 C127.3,25.56 126.97,25.61 126.64,25.61 L126.64,25.61 C126.22,25.61 125.78,25.61 125.37,25.56 L125.37,25.56 L125.37,25.81 L125.47,25.81 C125.762432,25.8301169 126.034126,25.9682347 126.222705,26.1926432 C126.411283,26.4170518 126.500546,26.708473 126.47,27 L126.47,27 L126.47,31.82 C126.47,32.74 126.22,33.33 125.39,33.33 L125.28,33.33 L125.28,33.57 L126.79,33.57 L126.79,33.57 L128.22,33.57 L128.22,33.57 L128.22,33.33 L128.07,33.33 C127.17,33.33 126.95,32.94 126.95,31.94 L126.95,31.94 L126.95,27 L132.95,33.65 L132.9,33.69 Z" id="Shape" fill="#1D1D1B"></path>
      <path d="M136.3,31.93 C136.188255,32.2213737 136.104543,32.522737 136.05,32.83 C136.05,33.17 136.53,33.23 136.91,33.23 L137,33.23 L137,33.57 L135.61,33.57 L134.37,33.57 L134.37,33.23 L134.44,33.23 C134.907766,33.2448006 135.323234,32.9331999 135.44,32.48 L137.27,27.23 C137.451166,26.7664018 137.591694,26.2879347 137.69,25.8 C138.056361,25.674302 138.408335,25.5100474 138.74,25.31 L138.83,25.31 C138.855201,25.2974968 138.884799,25.2974968 138.91,25.31 L139.01,25.6 L141.12,31.6 C141.26,32 141.4,32.43 141.55,32.77 C141.666344,33.0760135 141.974494,33.2650115 142.3,33.23 L142.37,33.23 L142.37,33.57 L140.79,33.57 L139.07,33.57 L139.07,33.23 L139.2,33.23 C139.46,33.23 139.91,33.23 139.91,32.9 C139.862257,32.6161207 139.785178,32.3379636 139.68,32.07 L139.23,30.74 L136.63,30.74 L136.3,31.93 Z M138,26.86 L138,26.86 L136.94,30.1 L139,30.1 L138,26.86 Z" id="Shape" fill="#1D1D1B"></path>
      <path d="M142.41,33.62 L140.83,33.62 L140.83,33.62 L139.11,33.62 L139.06,33.62 L139.06,33.17 L139.23,33.17 C139.5,33.17 139.9,33.11 139.9,32.89 L139.9,32.89 C139.855192,32.6119526 139.778,32.3401039 139.67,32.08 L139.67,32.08 L139.23,30.78 L136.7,30.78 L136.35,32 L136.35,32 C136.236656,32.2839659 136.152881,32.5788571 136.1,32.88 L136.1,32.88 C136.1,33.16 136.53,33.23 136.91,33.23 L137.08,33.23 L137.08,33.68 L137,33.68 L135.62,33.68 L135.62,33.68 L134.38,33.68 L134.38,33.68 L134.38,33.23 L134.5,33.23 C134.95637,33.2495036 135.367948,32.9572829 135.5,32.52 L135.5,32.52 L137.33,27.26 C137.508827,26.7851273 137.662375,26.301116 137.79,25.81 L137.79,25.81 C138.137407,25.6731069 138.472041,25.5057898 138.79,25.31 L138.79,25.31 L138.9,25.31 L138.9,25.31 C138.954259,25.3007587 139.007848,25.3296144 139.03,25.38 L139.03,25.38 C139.03,25.47 139.09,25.57 139.13,25.66 L139.13,25.66 L141.24,31.66 C141.37,32.06 141.51,32.48 141.66,32.82 L141.66,32.82 C141.768686,33.1103297 142.062354,33.2881847 142.37,33.25 L142.49,33.25 L142.49,33.7 L142.41,33.62 Z M139.16,33.52 L140.83,33.52 L140.83,33.52 L142.36,33.52 L142.36,33.52 L142.36,33.28 L142.36,33.28 C142.013933,33.3132041 141.687668,33.1133669 141.56,32.79 L141.56,32.79 C141.41,32.44 141.27,32.02 141.13,31.62 L141.13,31.62 L139.03,25.62 C139.03,25.53 138.96,25.43 138.93,25.35 L138.82,25.35 C138.507236,25.5445874 138.171274,25.6991297 137.82,25.81 L137.82,25.81 C137.715128,26.2962885 137.574752,26.7742357 137.4,27.24 L137.4,27.24 L135.56,32.5 C135.430492,32.9489455 135.026967,33.2636951 134.56,33.28 L134.56,33.28 L134.56,33.52 L135.75,33.52 L135.75,33.52 L137.09,33.52 L137.09,33.52 L137.09,33.28 L137.01,33.28 C136.64,33.28 136.11,33.28 136.1,32.83 L136.1,32.83 C136.151249,32.5176473 136.238497,32.2122801 136.36,31.92 L136.36,31.92 L136.73,30.69 L139.41,30.69 L139.86,32.06 C139.973891,32.3284528 140.051248,32.6109733 140.09,32.9 L140.09,32.9 C140.09,33.25 139.6,33.27 139.33,33.28 L139.26,33.28 L139.26,33.52 L139.16,33.52 Z M136.82,30.15 L137.92,26.81 L138,26.81 L138,26.86 L138,26.86 L138,26.81 L138,26.81 L139.09,30.15 L136.82,30.15 Z M136.95,30.05 L138.95,30.05 L138,27 L137,30.07 L136.95,30.05 Z" id="Shape" fill="#1D1D1B"></path>
      <path d="M145.3,32.45 C145.3,32.91 145.62,33.05 145.98,33.09 C146.485449,33.1396772 146.994551,33.1396772 147.5,33.09 C147.934369,33.0373572 148.330043,32.814341 148.6,32.47 C148.764251,32.2159007 148.882709,31.9349864 148.95,31.64 L149.29,31.64 C149.16,32.3 149,32.94 148.86,33.59 L145.86,33.59 L142.86,33.59 L142.86,33.25 L143,33.25 C143.41,33.25 143.86,33.19 143.86,32.48 L143.86,26.57 C143.86,25.97 143.41,25.92 143,25.92 L142.84,25.92 L142.84,25.57 C143.45,25.57 144.05,25.62 144.65,25.62 C145.25,25.62 145.81,25.57 146.39,25.57 L146.39,25.92 L146.11,25.92 C145.67,25.92 145.33,25.92 145.33,26.54 L145.3,32.45 Z" id="Shape" fill="#1D1D1B"></path>
      <path d="M148.86,33.62 L145.86,33.62 L145.86,33.62 L142.86,33.62 L142.81,33.62 L142.81,33.18 L143,33.18 C143.41,33.18 143.81,33.18 143.81,32.46 L143.81,32.46 L143.81,26.57 C143.81,26.01 143.42,25.97 143,25.97 L142.79,25.97 L142.79,25.52 L142.84,25.52 C143.45,25.52 144.05,25.57 144.65,25.57 L144.65,25.57 C145.23,25.57 145.81,25.52 146.39,25.52 L146.39,25.52 L146.39,26 L146.06,26 C145.61,26 145.33,26 145.32,26.57 L145.32,26.57 L145.32,32.48 C145.32,32.91 145.61,33.02 145.97,33.07 L145.97,33.07 L146.6,33.07 L146.6,33.07 L147.47,33.07 L147.47,33.07 C147.892218,33.0201048 148.277216,32.8042179 148.54,32.47 L148.54,32.47 C148.701014,32.2225864 148.816184,31.9482126 148.88,31.66 L148.88,31.66 L148.88,31.66 L149.32,31.66 L149.32,31.73 C149.19,32.38 149.03,33.02 148.89,33.73 L148.89,33.73 L148.89,33.73 L148.86,33.62 Z M148.86,33.52 C148.99,32.9 149.14,32.29 149.27,31.67 L149,31.67 C148.930524,31.9580322 148.812139,32.2320074 148.65,32.48 L148.65,32.48 C148.370502,32.8367633 147.960118,33.067154 147.51,33.12 L147.51,33.12 C147.21,33.12 146.91,33.17 146.63,33.17 L146.63,33.17 L145.99,33.17 L145.99,33.17 C145.62,33.17 145.25,32.97 145.26,32.48 L145.26,32.48 L145.26,26.54 C145.26,25.9 145.66,25.87 146.09,25.87 L146.32,25.87 L146.32,25.62 C145.76,25.62 145.2,25.67 144.63,25.67 L144.63,25.67 C144.03,25.67 143.45,25.67 142.87,25.62 L142.87,25.62 L142.87,25.87 L143,25.87 C143.41,25.87 143.91,25.94 143.91,26.57 L143.91,26.57 L143.91,32.46 C143.91,33.2 143.41,33.28 143,33.28 L142.89,33.28 L142.89,33.52 L145.89,33.52 L145.89,33.52 L148.89,33.52 L148.86,33.52 Z" id="Shape" fill="#1D1D1B"></path>
      <path d="M149.15,25.25 C149.818265,25.25 150.36,25.7917355 150.36,26.46 C150.36,27.1282645 149.818265,27.67 149.15,27.67 C148.481735,27.67 147.94,27.1282645 147.94,26.46 C147.931668,26.1366057 148.056472,25.8239727 148.285223,25.5952226 C148.513973,25.3664724 148.826606,25.2416681 149.15,25.25 L149.15,25.25 Z M149.15,27.44 C149.702285,27.44 150.15,26.9922847 150.15,26.44 C150.15,25.8877153 149.702285,25.44 149.15,25.44 C148.597715,25.44 148.15,25.8877153 148.15,26.44 C148.15,26.9922847 148.597715,27.44 149.15,27.44 Z M148.55,27.09 L148.55,27 C148.69,27 148.72,27 148.72,26.9 L148.72,26 C148.72,25.88 148.72,25.83 148.55,25.84 L148.55,25.78 L149.17,25.78 C149.38,25.78 149.58,25.88 149.58,26.1 C149.576881,26.2742824 149.45849,26.425333 149.29,26.47 L149.49,26.74 C149.564653,26.8498951 149.65571,26.9476975 149.76,27.03 L149.76,27.03 L149.52,27.03 C149.41,27.03 149.31,26.8 149.09,26.48 L149,26.48 L149,26.88 C149,26.96 149,26.95 149.18,26.97 L149.18,27.03 L148.55,27.09 Z M148.95,26.46 L149.1,26.46 C149.25,26.46 149.32,26.34 149.32,26.15 C149.32,25.96 149.21,25.89 149.09,25.89 L149,25.89 L148.95,26.46 Z" id="Shape" fill="#1D1D1B"></path>
      <path d="M20.2,40.05 C9.14814858,40.1277362 0.115426824,31.251522 2.22710739e-15,20.2 C0,8.26 9.12,0 20.2,0 L25.39,0 C36.39,0 46.33,8.25 46.33,20.2 C46.33,31.12 36.33,40.05 25.39,40.05 L20.2,40.05 Z M20.2,1.66 C10.084477,1.68759444 1.90348305,9.90436385 1.92002728,20.0199109 C1.93657151,30.135458 10.1443991,38.3254231 20.2599582,38.3199291 C30.3755174,38.3144351 38.5744438,30.1155591 38.58,20 C38.58,15.1359296 36.6477555,10.4710788 33.2083384,7.03166163 C29.7689212,3.59224445 25.1040704,1.66 20.24,1.66 L20.2,1.66 Z M16.08,30.83 L16.08,9.15 C11.5910431,10.8717484 8.62770369,15.1821781 8.62770369,19.99 C8.62770369,24.7978219 11.5910431,29.1082516 16.08,30.83 L16.08,30.83 Z M31.86,20 C31.861365,15.1847009 28.8951226,10.8665517 24.4,9.14 L24.4,30.84 C28.8883045,29.1160726 31.8530929,24.8079887 31.86,20 L31.86,20 Z" id="Shape" fill="#004A98"></path>
    </g>
  </g>
</svg>
