<svg id="Слой_1" data-name="Слой 1" xmlns="http://www.w3.org/2000/svg" viewBox="0 0 352.28 83.33"><defs><style>.cls-1{fill:#8cc23c;}.cls-2{fill:#033564;}</style></defs><path class="cls-1" d="M60.71,0C27.15,0,0,15.9,0,35.64c0,8.37,4.91,16,13.23,22.21C9.14,52.78,6.82,47.16,6.82,41.13c0-20.43,26.6-37,59.35-37,21.14,0,39.7,6.86,50.2,17.28C107,8.77,85.54,0,60.71,0Z" transform="translate(0 0)"/><path class="cls-2" d="M55.37,45.72a10.28,10.28,0,0,0,6-1.56,5.62,5.62,0,0,0,2.62-5A18.08,18.08,0,0,0,60,27.9a24.69,24.69,0,0,0-10.21-7.8,25,25,0,0,0-9.66-1.8q-10.76,0-17.66,7a23,23,0,0,0-6.91,16.83,22,22,0,0,0,7.23,16.71Q30,65.58,40.83,65.59A37.67,37.67,0,0,0,51.94,64q6.31-1.89,9.21-5.5a6.2,6.2,0,0,0,1.63-3.94q0-5.17-5.78-5.18c-.85,0-3,.73-6.51,2.18a24.08,24.08,0,0,1-8.94,2.17,13.13,13.13,0,0,1-7.49-2,7.85,7.85,0,0,1-3.53-5.91ZM33.69,31.31a9.87,9.87,0,0,1,6.51-2.18,9.77,9.77,0,0,1,6.46,2.22A7.93,7.93,0,0,1,49.59,37H30.35A9.72,9.72,0,0,1,33.69,31.31Z" transform="translate(0 0)"/><path class="cls-2" d="M72.08,58.69q6.67,6.83,17.7,6.82a27.16,27.16,0,0,0,11-2q6.15-2.79,6.14-6.82a5.74,5.74,0,0,0-1.58-4.06A5.37,5.37,0,0,0,101.25,51a12.75,12.75,0,0,0-4.33,1,16,16,0,0,1-5.69,1Q86,53,83.1,49.66a11.69,11.69,0,0,1-2.53-7.88A12.26,12.26,0,0,1,83,34a9.18,9.18,0,0,1,7.68-3.45,16.43,16.43,0,0,1,5.82,1,13.66,13.66,0,0,0,4.47,1,6,6,0,0,0,4.34-1.64,5.34,5.34,0,0,0,1.71-4q0-4.61-6-6.9a29.91,29.91,0,0,0-10.38-1.64Q79.3,18.38,72.44,25T65.58,42q0,10.09,6.5,16.66Z" transform="translate(0 0)"/><path class="cls-2" d="M114.17,58.78q7,7,18,7t18-6.89A23,23,0,0,0,156.8,42,23.13,23.13,0,0,0,150,25q-6.77-6.81-17.88-6.82-10.92,0-17.84,6.86a23,23,0,0,0-6.91,17,22.67,22.67,0,0,0,6.78,16.75Zm10.57-24.47a8.65,8.65,0,0,1,7.4-3.53,8.53,8.53,0,0,1,7.32,3.61,12.24,12.24,0,0,1,2.35,7.55,12.5,12.5,0,0,1-2.26,7.64,8.62,8.62,0,0,1-7.41,3.61,8.5,8.5,0,0,1-7.31-3.61,12.32,12.32,0,0,1-2.35-7.64,12.63,12.63,0,0,1,2.26-7.63Z" transform="translate(0 0)"/><path class="cls-1" d="M177.3,17.06h6.5q10.3,0,10.3,7.8,0,8-10.3,8h-6.5Zm0,38.39V45.23h10.12q10.65,0,16.8-5.34t6.14-15q0-9.76-6.78-15.19-6.41-5.16-17.34-5.17H172.7q-5.88,0-8.13,2.13c-1.51,1.43-2.26,3.91-2.26,7.47V55.42q0,9.67,7.49,9.68t7.5-9.65Z" transform="translate(0 0)"/><path class="cls-1" d="M228.61,34.55a8.5,8.5,0,0,1,7.1-3.36,8.35,8.35,0,0,1,7.1,3.36A12.06,12.06,0,0,1,245,41.86a12.41,12.41,0,0,1-2.16,7.39,8.27,8.27,0,0,1-7.1,3.45,8.51,8.51,0,0,1-7.19-3.45,12.06,12.06,0,0,1-2.25-7.39,11.65,11.65,0,0,1,2.34-7.31ZM252.56,65.1q7.21,0,7.22-9.71V28.66q0-9.63-7.22-9.63a7.79,7.79,0,0,0-7,4.19,15.27,15.27,0,0,0-11.74-4.76,21.05,21.05,0,0,0-16.53,7.39A23.57,23.57,0,0,0,211.19,42a23.79,23.79,0,0,0,5.87,16,20.6,20.6,0,0,0,16.26,7.39q7.77,0,12.28-5c1.45,3.12,3.76,4.68,7,4.68Z" transform="translate(0 0)"/><path class="cls-1" d="M293.65,24.29l-8.94,21.18-8.31-20A15.74,15.74,0,0,0,274,20.92,6.54,6.54,0,0,0,269,19a7.22,7.22,0,0,0-5.1,1.89,6.15,6.15,0,0,0-2,4.68,8.62,8.62,0,0,0,.81,3.7l14.72,31.27-6,11.89a10.75,10.75,0,0,0-1.2,4.5,5.83,5.83,0,0,0,2,4.65,7.78,7.78,0,0,0,5.24,1.72q3.89,0,6.42-5.34l22.31-48a11.19,11.19,0,0,0,1.17-4.6q0-6.33-7.23-6.33c-2.77,0-4.9,1.76-6.41,5.26Z" transform="translate(0 0)"/><path class="cls-1" d="M343.17,52.12H328.75l19.39-22.65q3-3.45,3-5.83a3.09,3.09,0,0,0-2.26-3.33,25.16,25.16,0,0,0-6.95-.7H318.5q-9.31,0-9.31,6t9.22,6.08H331l-20,23.56a7.93,7.93,0,0,0-2.17,5.1q0,4.09,7.68,4.1h26.64q9.22,0,9.22-6.07,0-6.24-9.11-6.25Z" transform="translate(0 0)"/></svg>