<svg id="Layer_1" data-name="Layer 1" xmlns="http://www.w3.org/2000/svg" viewBox="0 0 303 69"><title>entropay-logo-303x69</title><path d="M19,9.84C8.5523,9.84.8494,18.23.8494,28.83c0,10.5968,8.4639,18.9879,19.4453,18.9879A22.5688,22.5688,0,0,0,34.7814,42.63c-2.5476-4.8116-4.542-4.4112-12.3617-3.3414l-.0024-.006a15.7587,15.7587,0,0,1-2.1227.1442c-5.7182,0-9.4585-4.1156-10.1436-7.32H37.15c.0739-1.3733.0739-2.7442.0739-3.4293C37.2236,17.5389,28.9127,9.84,19,9.84ZM10.151,25.4709c.3077-3.2,2.9735-7.32,8.8491-7.32,6.0211,0,8.92,4.1944,9.0748,7.32Z" fill="#00c7b1" fill-rule="evenodd"/><path d="M155.8927,9.84a18.9912,18.9912,0,1,0,19.2914,18.99A18.9614,18.9614,0,0,0,155.8927,9.84Zm0,29.437c-6.1795,0-9.991-4.8062-9.991-10.4472,0-5.6446,3.8115-10.449,9.991-10.449,6.1777,0,9.9892,4.8044,9.9892,10.449C165.8819,34.4709,162.07,39.2771,155.8927,39.2771Z" fill="#00c7b1" fill-rule="evenodd"/><path d="M62.18,9.84a12.485,12.485,0,0,0-10.8267,6.1777v-.0346h.0009l-.0009-.0254v-.28l-.0149.0067a5.2835,5.2835,0,0,0-5.3078-4.9225v-.0079h-3.22V46.9h9.1514V23.0327s2.44-4.6518,7.1681-4.6518c3.9654,0,7.17,2.21,7.17,7.3972V46.9h9.1487V23.487C75.4488,14.7954,69.1954,9.84,62.18,9.84Z" fill="#00c7b1" fill-rule="evenodd"/><path d="M131.6739,9.84c-6.7107,0-9.8365,6.1777-9.8365,6.1777v-.4271l-.0218.0085a5.26,5.26,0,0,0-5.45-4.8565v.0115h-3.22V46.9h9.15V23.2629a9.5582,9.5582,0,0,1,8.0835-4.882,10.5044,10.5044,0,0,1,4.3476.84l3.2015-8.2391A19.694,19.694,0,0,0,131.6739,9.84Z" fill="#00c7b1" fill-rule="evenodd"/><path d="M198.9838,9.84a13.1119,13.1119,0,0,0-10.9051,5.638l-.0006-.0236V15.088c-.0055.006,0,.1217-.0315-.1115a4.6515,4.6515,0,0,0-4.5984-4.2089l-.003-.0133H183.16l-.0321-.0012v.0012h-3.5165V64.4379h9.15V43.1644a12.9157,12.9157,0,0,0,10.223,4.6535c9.3768,0,17.6129-7.8562,17.6129-18.9879C216.5967,17.694,208.3606,9.84,198.9838,9.84Zm-1.6023,29.437a10.0191,10.0191,0,0,1-8.6208-5.0322V23.415a10.019,10.019,0,0,1,8.6208-5.034c6.1746,0,9.9123,4.5009,9.9123,10.449S203.5562,39.2771,197.3815,39.2771Z" fill="#00c7b1" fill-rule="evenodd"/><path d="M248.3665,15.4811A12.9541,12.9541,0,0,0,237.4637,9.84c-9.3822,0-17.6159,7.8538-17.6159,18.99,0,11.1317,8.2336,18.9879,17.6159,18.9879a12.4962,12.4962,0,0,0,10.9027-5.6446v.1981c.0133-.0182.03-.03.0436-.0466a5.2925,5.2925,0,0,0,5.1309,4.5615l.0006.0133h3.29V10.7543h-8.4651Zm-.6876,18.7639a10.1182,10.1182,0,0,1-8.54,5.0322c-6.1777,0-9.9922-4.4991-9.9922-10.4472s3.8146-10.449,9.9922-10.449a10.1182,10.1182,0,0,1,8.54,5.034Z" fill="#00c7b1" fill-rule="evenodd"/><path d="M292.3153,10.7543l-9.5331,26.4626L270.5789,10.7543H260.4413l17.61,36.9849s-1.5435,3.9781-1.595,4.1h.0133a17.0135,17.0135,0,0,1-4.2579,5.8057c-.3053.275-.6167.5137-.9268.7585-2.789,1.999-3.8261,3.8618-2.8478,6.7071-.0073.0018-.0133.0073-.0206.0091l.129.332.0019.0048h.0006L269.9416,69a19.7629,19.7629,0,0,0,9.6924-6.151c2.279-2.5479,4.37-5.8046,8.1435-15.8422l14.3732-36.2525Z" fill="#00c7b1" fill-rule="evenodd"/><path d="M99.7824,39.2771c-2.4425,0-4.73-1.2976-4.73-5.7185V18.988H105.96V10.7543H95.0525V3.731l-.0024.7862C95.05.5228,92.1333.0055,90.608.0055L91.1623,0h-5.26V10.7543H78.81V18.988h7.0921V35.0046c0,7.7018,5.3375,12.8133,12.3553,12.8133a16.4464,16.4464,0,0,0,8.6929-2.3674l-3.3554-7.471A7.2461,7.2461,0,0,1,99.7824,39.2771Z" fill="#00c7b1" fill-rule="evenodd"/></svg>