<svg width="139" height="34" viewBox="0 0 139 34" xmlns="http://www.w3.org/2000/svg"><title>logo-sat</title><g fill-rule="nonzero" fill="none"><path d="M122.744.34c2.525 0 4.927.578 7.082 1.612.338.152.678.335 1.015.518l-1.477 1.31-2.216-2.284-3.817 3.348-2.248-2.404-7.02 6.24 4.495 4.9-1.755 1.52 4.434 4.9-1.755 1.522 6.344 6.97 3.754-3.41 3.265 3.654c-.647.487-1.355.975-2.124 1.4-2.34 1.31-5.05 2.068-7.945 2.068-8.898 0-16.133-7.15-16.133-15.946-.03-8.735 7.205-15.92 16.102-15.92zm-2.956 14.943l3.85-3.41 3.448 3.806-3.85 3.408-3.448-3.805zm2.74 6.575l3.82-3.44 3.478 3.805-3.85 3.41-3.447-3.775zM117.05 8.8l3.847-3.408 3.45 3.804-3.85 3.41L117.05 8.8zm7.05-1.825l2.862-2.557 2.587 2.83-2.865 2.587-2.586-2.86zm5.11 11.717l2.862-2.556 2.587 2.86-2.864 2.558-2.586-2.862zm2.524 5.753l2.864-2.557 2.585 2.83-2.863 2.587-2.586-2.86zm1.17-13.15l1.91-1.703 1.723 1.887-1.908 1.704-1.726-1.888zm-2.463-5.63l1.91-1.734 1.725 1.918-1.91 1.705-1.724-1.888zm4.897 11.263l1.908-1.705L139 17.11l-1.94 1.704-1.723-1.886zm-8.59-4.232l2.863-2.556 2.586 2.83-2.862 2.557-2.587-2.83zM8.445 11.316H8.3L5.573 21.672H3.345L0 6.96h2.313l2.312 10.977h.144L7.452 6.96H9.29l2.87 10.977h.146L14.412 6.96h2.416l-3.346 14.712h-2.23M19.762 15.408h4.727c-.103-2.178-1.157-3.05-2.272-3.05-1.26 0-2.23.977-2.456 3.05m6.38 3.902v1.578c-.93.54-2.168.955-3.656.955-3.47 0-4.892-2.159-4.892-5.437 0-3.155 1.59-5.437 4.686-5.437 2.58 0 4.17 1.68 4.17 5.062v.768h-6.73c0 2.49 1.01 3.59 3.138 3.59 1.116 0 2.148-.396 3.283-1.08M31.254 20.18c.66.29 1.384.332 1.9.332 1.53 0 2.683-.955 2.683-4.317 0-2.635-.95-3.485-2.332-3.485-.826 0-1.425.228-2.25.684v6.785zm.02-8.32c.62-.332 1.672-.77 2.788-.77 2.56 0 3.944 1.785 3.944 5.105 0 3.88-1.86 5.77-4.852 5.77-1.095 0-2.788-.354-4.027-1.02V6.466l2.148-.52v5.914zM47.3 18.55h.102l4.417-11.6h2.56v14.713h-2.23V10.997h-.185l-4.212 10.666h-1.32L42.22 11.247h-.187v10.416h-1.858V6.95h2.5M63.49 16.406c0-2.8-1.134-3.983-2.537-3.983-1.362 0-2.54 1.182-2.54 3.983 0 2.843 1.074 3.983 2.54 3.983 1.465 0 2.538-1.14 2.538-3.984m-7.244 0c0-3.632 1.982-5.437 4.707-5.437 2.727 0 4.708 1.804 4.708 5.436 0 3.547-1.878 5.437-4.707 5.437-2.83 0-4.707-1.89-4.707-5.437M67.294 12.505c.93-.56 2.892-1.536 5.264-1.536 2.478 0 3.406.974 3.406 3.11v7.514h-2.146V14.56c0-1.64-.803-1.93-1.858-1.93-.825 0-1.88.374-2.52.747v8.217h-2.146v-9.09zM80.51 15.408h4.726c-.1-2.178-1.155-3.05-2.27-3.05-1.26 0-2.23.977-2.457 3.05m6.378 3.902v1.578c-.928.54-2.167.955-3.655.955-3.465 0-4.89-2.159-4.89-5.437 0-3.155 1.588-5.437 4.685-5.437 2.58 0 4.172 1.68 4.172 5.062v.768h-6.73c0 2.49 1.01 3.59 3.136 3.59 1.115 0 2.15-.396 3.282-1.08M95.776 10.97h2.21L94.248 21.34c-1.033 2.864-2.29 4.358-4.665 4.358V24c1.404 0 2.27-1.12 2.767-2.658L88.386 10.97h2.27l2.644 7.634h.124l2.352-7.635z" fill="#006CB4"/><path d="M22.302 31.234v-.896c.765.39 1.494.584 2.184.584.576 0 1.016-.106 1.324-.32.307-.21.462-.496.462-.857 0-.36-.127-.632-.38-.812-.253-.18-.725-.404-1.415-.667-.24-.09-.394-.15-.462-.177l-.4-.167c-.2-.083-.33-.147-.39-.188-.062-.043-.165-.105-.313-.187-.147-.085-.246-.158-.298-.224-.05-.066-.12-.15-.21-.25s-.15-.2-.18-.303c-.03-.1-.06-.215-.086-.347-.028-.133-.04-.275-.04-.427 0-.59.216-1.065.65-1.427.435-.36 1.034-.542 1.8-.542.677 0 1.352.125 2.02.375v.948c-.65-.32-1.298-.478-1.948-.478-.46 0-.8.096-1.026.29-.226.194-.34.45-.34.77 0 .34.114.6.34.777.225.177.63.373 1.21.588 1 .368 1.686.7 2.062 1 .376.298.565.743.565 1.332 0 .62-.258 1.124-.774 1.516-.516.393-1.225.59-2.13.59-.826 0-1.568-.17-2.224-.502zm10.436.343h-.973l-.073-.603c-.588.486-1.176.73-1.764.73-.492 0-.873-.135-1.144-.402-.27-.268-.405-.605-.405-1.016 0-.216.038-.42.117-.62.08-.197.21-.39.39-.577.18-.19.455-.34.82-.454.366-.115.806-.172 1.318-.172h.637v-.28c0-.466-.086-.783-.257-.954-.172-.17-.46-.255-.86-.255-.494 0-1.1.204-1.816.614v-.833c.737-.34 1.462-.512 2.172-.512.69 0 1.17.143 1.436.428.267.284.4.716.4 1.29v3.614zm-1.066-2.385h-.544c-1.122 0-1.683.337-1.683 1.01 0 .238.076.408.226.517.152.106.34.16.566.16.287 0 .564-.07.83-.21.267-.137.47-.297.606-.478v-1zm2.733 4.47v-6.655c.3-.23.657-.415 1.068-.554.41-.138.812-.208 1.21-.208 1.422 0 2.133.87 2.133 2.615 0 .903-.184 1.593-.554 2.072-.37.48-.9.717-1.59.717-.478 0-.88-.122-1.2-.364v2.375h-1.067zm1.057-6.303v3.157c.137.13.31.228.517.295.21.066.39.098.548.098.376 0 .672-.146.888-.44.216-.297.322-.833.322-1.61 0-.63-.11-1.094-.332-1.384-.222-.293-.51-.44-.867-.44-.404 0-.763.11-1.078.323zm5.8-1.06v5.277h-1.066V26.56l1.067-.26zm-1.23-1.533c0-.188.07-.352.21-.495.14-.142.303-.213.487-.213s.346.07.487.212c.14.143.21.307.21.495 0 .187-.07.352-.21.496-.14.14-.303.212-.488.212s-.348-.072-.49-.212c-.138-.144-.21-.31-.21-.496zm5.226 6.207c.493 0 1.036-.18 1.63-.54v.79c-.546.32-1.152.48-1.815.48-.834 0-1.448-.24-1.84-.72-.394-.48-.59-1.15-.59-2.01 0-.82.2-1.48.604-1.978.404-.5.978-.75 1.724-.75.657 0 1.166.215 1.53.646.36.43.542 1.06.542 1.894v.387H43.7c0 .618.125 1.073.378 1.363.253.292.647.438 1.18.438zm-.32-4.03c-.32 0-.59.128-.81.384-.217.258-.355.64-.41 1.146h2.35c-.028-.514-.147-.896-.36-1.15-.21-.254-.467-.38-.768-.38zm3.463 4.633v-4.56c.842-.515 1.714-.772 2.618-.772.608 0 1.042.126 1.302.376s.39.647.39 1.188v3.77h-1.066v-3.53c0-.382-.08-.64-.237-.77-.157-.133-.386-.2-.687-.2-.41 0-.827.126-1.25.376v4.123H48.4zm6.992-5.08h1.62l-.256.707h-1.364v2.75c0 .693.294 1.04.882 1.04.226 0 .454-.048.688-.145v.665c-.32.125-.705.188-1.15.188-.512 0-.888-.147-1.127-.444-.24-.294-.36-.682-.36-1.162v-4.29l1.067-.782v1.47zm3.71-.198v5.277h-1.07V26.56l1.07-.26zm-1.232-1.533c0-.188.07-.352.21-.495.14-.142.302-.213.487-.213.184 0 .347.07.487.212.14.143.21.307.21.495 0 .187-.07.352-.21.496-.14.14-.303.212-.487.212-.185 0-.347-.072-.488-.212-.14-.144-.21-.31-.21-.496zm8.492 1.895v.832c-.512-.347-1.032-.52-1.558-.52-.267 0-.486.052-.657.157-.17.104-.256.272-.256.5 0 .217.094.388.283.516.187.128.483.26.888.39.226.076.395.136.507.177.114.043.262.112.447.21.184.097.323.193.416.29.09.1.175.227.25.387.076.16.113.336.113.53 0 .48-.19.86-.57 1.145-.378.286-.886.428-1.522.428-.71 0-1.303-.152-1.773-.46v-.81c.6.36 1.15.54 1.65.54.753 0 1.13-.25 1.13-.75 0-.096-.023-.187-.067-.27-.045-.083-.096-.15-.154-.203-.058-.052-.153-.11-.283-.178-.13-.064-.24-.113-.328-.144-.09-.03-.228-.082-.42-.152-.28-.103-.503-.194-.667-.27-.165-.077-.328-.176-.492-.297-.165-.122-.284-.268-.36-.434-.075-.166-.112-.364-.112-.593 0-.29.07-.54.205-.748.136-.21.314-.36.532-.45.22-.09.42-.153.6-.186.182-.037.36-.055.54-.055.58 0 1.134.14 1.66.417zm5.667 4.915h-.974l-.073-.603c-.59.486-1.175.73-1.763.73-.492 0-.874-.135-1.144-.402-.27-.268-.405-.605-.405-1.016 0-.216.04-.42.12-.62.077-.197.207-.39.39-.577.18-.19.453-.34.82-.454.364-.115.805-.172 1.316-.172h.637v-.28c0-.466-.086-.783-.256-.954-.172-.17-.46-.255-.862-.255-.492 0-1.098.204-1.816.614v-.833c.738-.34 1.462-.512 2.173-.512.692 0 1.17.143 1.437.428.266.284.4.716.4 1.29v3.614zm-1.066-2.385h-.544c-1.122 0-1.683.337-1.683 1.01 0 .238.076.408.226.517.15.106.338.16.565.16.287 0 .563-.07.83-.21.267-.137.47-.297.606-.478v-1zm3.75-2.696h1.62l-.258.708h-1.363v2.75c0 .693.294 1.04.88 1.04.227 0 .455-.048.688-.145v.665c-.32.125-.702.188-1.148.188-.512 0-.888-.147-1.127-.444-.24-.294-.36-.682-.36-1.162v-4.29l1.068-.782v1.47z" fill="#B6B6B6"/></g></svg>