<?xml version="1.0" encoding="utf-8"?>
<!-- Generator: Adobe Illustrator 17.1.0, SVG Export Plug-In . SVG Version: 6.00 Build 0)  -->
<!DOCTYPE svg PUBLIC "-//W3C//DTD SVG 1.1//EN" "http://www.w3.org/Graphics/SVG/1.1/DTD/svg11.dtd">
<svg version="1.1" id="图层_1" xmlns="http://www.w3.org/2000/svg" xmlns:xlink="http://www.w3.org/1999/xlink" x="0px" y="0px"
	 viewBox="0 0 442.9 76.1" enable-background="new 0 0 442.9 76.1" xml:space="preserve">
<g>
	<g>
		<path fill="#ECB241" d="M104.4,38.2L86.8,20.4c-0.8-0.8-2.2-0.8-3,0L66.1,38.2c-0.8,0.8-0.8,2.2,0,3L83.7,59c0.8,0.8,2.2,0.8,3,0
			l17.6-17.8C105.2,40.4,105.2,39,104.4,38.2z M78.9,39.4c-0.9,0.9-2.3,0.9-3.2,0s-0.9-2.4,0-3.3c0.9-0.9,2.4-0.9,3.2,0
			C79.8,37.1,79.8,38.5,78.9,39.4z M83.9,44.5c-0.9,0.9-2.3,0.9-3.2,0c-0.9-0.9-0.9-2.4,0-3.3c0.9-0.9,2.4-0.9,3.2,0
			C84.8,42.1,84.8,43.6,83.9,44.5z M81.7,33.3c-0.9-0.9-0.9-2.4,0-3.3c0.9-0.9,2.3-0.9,3.2,0c0.9,0.9,0.9,2.4,0,3.3
			C84,34.3,82.6,34.2,81.7,33.3z M88.8,49.5c-0.9,0.9-2.3,0.9-3.2,0s-0.9-2.4,0-3.3c0.9-0.9,2.4-0.9,3.2,0
			C89.8,47.2,89.8,48.6,88.8,49.5z M89.9,38.4c-0.9,0.9-2.3,0.9-3.2,0c-0.9-0.9-0.9-2.4,0-3.3c0.9-0.9,2.3-0.9,3.2,0
			C90.8,36,90.8,37.5,89.9,38.4z M94.9,43.4c-0.9,0.9-2.3,0.9-3.2,0s-0.9-2.4,0-3.3c0.9-0.9,2.3-0.9,3.2,0
			C95.8,41.1,95.8,42.5,94.9,43.4z"/>
		<path fill="#ECB241" d="M9,41.2L26.6,59c0.8,0.8,2.2,0.8,3,0l17.6-17.8c0.8-0.8,0.8-2.2,0-3L29.6,20.4c-0.8-0.8-2.2-0.8-3,0
			L9,38.2C8.2,39,8.2,40.4,9,41.2z M34.5,36.2c0.9-0.9,2.3-0.9,3.2,0c0.9,0.9,0.9,2.4,0,3.3c-0.9,0.9-2.4,0.9-3.2,0
			C33.6,38.5,33.6,37.1,34.5,36.2z M29.5,41.2c0.9-0.9,2.3-0.9,3.2,0c0.9,0.9,0.9,2.4,0,3.3c-0.9,0.9-2.4,0.9-3.2,0
			C28.6,43.6,28.6,42.1,29.5,41.2z M28.5,33.3c-0.9-0.9-0.9-2.4,0-3.3c0.9-0.9,2.3-0.9,3.2,0c0.9,0.9,0.9,2.4,0,3.3
			C30.8,34.3,29.4,34.2,28.5,33.3z M24.5,46.2c0.9-0.9,2.3-0.9,3.2,0c0.9,0.9,0.9,2.4,0,3.3c-0.9,0.9-2.4,0.9-3.2,0
			C23.6,48.6,23.6,47.2,24.5,46.2z M23.5,35.1c0.9-0.9,2.3-0.9,3.2,0c0.9,0.9,0.9,2.4,0,3.3c-0.9,0.9-2.3,0.9-3.2,0
			C22.6,37.5,22.6,36,23.5,35.1z M18.5,40.2c0.9-0.9,2.3-0.9,3.2,0c0.9,0.9,0.9,2.4,0,3.3c-0.9,0.9-2.3,0.9-3.2,0
			C17.6,42.5,17.6,41.1,18.5,40.2z"/>
	</g>
	<path fill="#FFFFFF" d="M108.2,8.6c-1.4-1-3.4-0.7-4.4,0.7l0-0.1l0,0l0,0l-0.1,0.1c-0.1,0.1-0.1,0.1-0.2,0.2
		c-0.1,0.1-0.3,0.2-0.4,0.3c-0.3,0.2-0.6,0.4-1,0.6c-0.7,0.3-1.4,0.5-2.1,0.6c-0.2,0-0.4,0-0.6,0.1c-0.1,0-0.2,0-0.3,0h-0.3h-0.3h0
		l0,0h0c0,0,0,0-0.1,0c0,0-0.1,0-0.1,0c-0.1,0-0.1,0-0.2-0.1L98,10.9l-0.3-0.1l-0.1-0.1l-0.1-0.1l-0.3-0.1c-0.2-0.1-0.4-0.2-0.6-0.3
		c-0.2-0.1-0.4-0.2-0.6-0.3c-0.9-0.5-1.8-1-2.7-1.6l-2.8-1.7c-1.9-1.2-4-2.4-6.2-3.5c-1.1-0.5-2.3-1.1-3.5-1.5s-2.5-0.9-3.9-1.2
		c-0.7-0.1-1.4-0.3-2.1-0.4c-0.2,0-0.4-0.1-0.5-0.1l-0.6,0l-0.6,0h-0.5h-1c-0.3,0-0.6,0-1,0l-1,0.1c-0.3,0-0.6,0-1,0.1
		c-2.6,0.2-5.2,0.8-7.7,1.6l-0.5,0.1L59.9,2c-0.1,0-0.1,0-0.1,0.1c-0.4-1.2-1.5-2.1-2.9-2.2c-1.4-0.1-2.7,0.9-3.1,2.2
		c-0.1,0-0.1,0-0.1-0.1l-0.5-0.2l-0.5-0.1c-2.5-0.8-5.1-1.3-7.7-1.6c-0.3,0-0.6-0.1-1-0.1L43,0c-0.3,0-0.6,0-1,0h-1h-0.5L40,0
		l-0.6,0c-0.2,0-0.4,0-0.5,0.1c-0.7,0.1-1.4,0.2-2.1,0.4c-1.4,0.3-2.7,0.7-3.9,1.2c-1.2,0.5-2.4,1-3.5,1.5c-2.2,1.1-4.2,2.3-6.2,3.5
		l-2.8,1.7c-0.9,0.6-1.8,1.1-2.7,1.6c-0.2,0.1-0.4,0.2-0.6,0.3c-0.2,0.1-0.4,0.2-0.6,0.3l-0.3,0.1L16,10.8l-0.1,0.1l-0.3,0.1
		L15.4,11c-0.1,0-0.1,0-0.2,0.1c-0.1,0-0.1,0-0.1,0c0,0,0,0-0.1,0h0l0,0h0h-0.3h-0.3c-0.1,0-0.2,0-0.3,0c-0.2,0-0.4,0-0.6-0.1
		c-0.7-0.1-1.5-0.3-2.1-0.6c-0.3-0.2-0.6-0.3-1-0.6c-0.1-0.1-0.3-0.2-0.4-0.3C10,9.5,9.9,9.4,9.9,9.3L9.8,9.3l0,0l0,0l0,0.1
		c-1-1.4-3-1.8-4.4-0.7c-1.4,1-1.7,3-0.7,4.5l0.1,0.2l0.1,0.1l0.2,0.3c0.1,0.1,0.3,0.3,0.4,0.5c0.3,0.3,0.5,0.6,0.8,0.8
		c0.6,0.5,1.2,1,1.8,1.4c1.3,0.8,2.7,1.4,4.1,1.7c0.4,0.1,0.7,0.1,1.1,0.2c0.2,0,0.4,0.1,0.5,0.1l0.5,0.1l0.5,0H15h0.1h0.2h0.4
		c0.3,0,0.5,0,0.7-0.1c0.2,0,0.5-0.1,0.6-0.1c1.6-0.3,2.8-0.8,4-1.2c1.2-0.5,2.2-1,3.3-1.5l3-1.5c2-1,3.9-1.9,5.8-2.6
		c1.9-0.7,3.7-1.2,5.4-1.4c0.4-0.1,0.8-0.1,1.2-0.1c0.1,0,0.2,0,0.3,0h0.3h0.3l0.3,0l0.7,0.1c0.2,0,0.5,0,0.7,0.1l0.7,0.1
		c0.2,0,0.5,0.1,0.7,0.1c1.8,0.3,3.6,0.9,5.3,1.6l0.3,0.1l0.3,0.1l0.6,0.3c0.4,0.2,0.8,0.4,1.2,0.6c0.2,0.1,0.4,0.2,0.6,0.3
		c0.2,0.1,0.4,0.2,0.5,0.4c0.2,0.1,0.3,0.2,0.5,0.3c0.1,0.1,0.1,0.1,0.2,0.1l-2.1,52.1h-13c-2.6,0-4.8,2.1-4.8,4.8
		c0,2.7,2.1,4.8,4.8,4.8h37.3c2.6,0,4.8-2.1,4.8-4.8c0-2.7-2.1-4.8-4.8-4.8H62.4l-2.1-52.1c0.1-0.1,0.1-0.1,0.2-0.1
		c0.2-0.1,0.3-0.2,0.5-0.3c0.2-0.1,0.4-0.3,0.5-0.4c0.2-0.1,0.4-0.2,0.6-0.3c0.4-0.2,0.8-0.5,1.2-0.6l0.6-0.3l0.3-0.1l0.3-0.1
		c1.7-0.7,3.5-1.3,5.3-1.6c0.2-0.1,0.5-0.1,0.7-0.1l0.7-0.1c0.2-0.1,0.5-0.1,0.7-0.1l0.7-0.1l0.3,0h0.3h0.3c0.1,0,0.2,0,0.3,0
		c0.4,0,0.8,0,1.2,0.1c1.7,0.2,3.5,0.7,5.4,1.4c1.9,0.7,3.8,1.6,5.8,2.6l3,1.5c1,0.5,2.1,1,3.3,1.5c1.2,0.5,2.4,1,4,1.2
		c0.2,0,0.4,0.1,0.6,0.1c0.2,0,0.4,0.1,0.7,0.1h0.4h0.2h0.1h0.1l0.5,0l0.5-0.1c0.2,0,0.4-0.1,0.5-0.1c0.4-0.1,0.7-0.1,1.1-0.2
		c1.4-0.3,2.8-0.9,4.1-1.7c0.6-0.4,1.2-0.8,1.8-1.4c0.3-0.3,0.6-0.5,0.8-0.8c0.1-0.1,0.3-0.3,0.4-0.5l0.2-0.3l0.1-0.1l0.1-0.2
		C110,11.6,109.7,9.6,108.2,8.6z"/>
	<g>
		<path fill="#FFFFFF" d="M178.4,43.4c5-1.9,7.6-5.9,7.6-12c0-4.4-1.3-7.7-4-9.8c-2.6-2-6.8-3-12.7-3h-14.6v38.7h7.8V44.8h7.1
			l8.9,12.5h9.9L178.4,43.4z M178,31.4c0,2.2-0.6,3.8-1.7,4.7c-1.1,1-3.4,1.5-6.7,1.5h-7.1V25.8h7.2c3.2,0,5.4,0.4,6.6,1.2
			C177.5,27.8,178,29.3,178,31.4z"/>
		<g>
			<polygon fill="#FFFFFF" points="119.1,26.1 130.4,26.1 130.4,57.6 138.2,57.6 138.2,26.1 149.5,26.1 149.5,18.8 119.1,18.8 			
				"/>
			<path fill="#FFFFFF" d="M218.3,40.2c0,3.2-0.8,5.8-2.4,7.6c-1.6,1.8-3.6,2.7-6.3,2.7c-2.7,0-4.8-0.9-6.3-2.7
				c-1.6-1.8-2.4-4.4-2.4-7.6V18.8H193v21.6c0,5.5,1.6,9.9,4.6,12.9c3.1,3,7.1,4.6,11.9,4.6c4.8,0,8.8-1.5,11.9-4.6
				c3.1-3,4.6-7.4,4.6-12.9V18.8h-7.8V40.2z"/>
			<path fill="#FFFFFF" d="M258.5,38.4c-2-1.7-5-3.1-8.9-4.1c-3.7-0.9-6.1-1.7-7.2-2.5c-1-0.7-1.4-1.6-1.4-2.8
				c0-1.2,0.5-2.1,1.4-2.7c2.1-1.4,5.9-1.3,9.4-0.1c1.8,0.6,3.2,1.4,4.2,2.3l0.6,0.6l4.3-6l-0.5-0.5c-1.8-1.5-3.9-2.6-6.3-3.4
				c-2.4-0.8-4.9-1.2-7.3-1.2c-3.8,0-7.1,1-9.7,2.9c-2.7,2-4.1,4.9-4.1,8.6c0,3.7,1.2,6.5,3.6,8.3c1.2,0.9,2.5,1.7,4,2.3
				c1.5,0.6,3.5,1.2,6.3,1.8c2.6,0.6,4.5,1.3,5.5,2.1c0.9,0.7,1.4,1.5,1.4,2.7c0,1.2-0.5,2.1-1.5,2.8c-1.1,0.8-2.5,1.2-4.4,1.2
				c-3.8,0-7.6-1.6-11.2-4.7l-0.6-0.5l-4.9,5.9l0.5,0.5c4.6,4.1,10,6.2,16,6.2c4.1,0,7.5-1.1,10.1-3.2c2.6-2.2,4-5,4-8.5
				C261.7,42.8,260.6,40.2,258.5,38.4z"/>
		</g>
		<polygon fill="#FFFFFF" points="264.4,18.8 264.4,26.1 275.7,26.1 275.7,57.6 283.5,57.6 283.5,26.1 294.8,26.1 294.8,18.8 		"/>
		<path fill="#FFFFFF" d="M344.1,23.9c-3.7-3.4-9.1-5.1-15.9-5.1h-13.5v38.7h13.1c7.3,0,12.9-1.8,16.5-5.3c3.6-3.5,5.4-8.3,5.4-14.3
			C349.7,32,347.8,27.3,344.1,23.9z M338.5,47.1c-2.2,2-5.5,3-9.8,3h-6.2v-24h5.5c9.3,0,13.9,3.9,13.9,12
			C341.9,42.1,340.8,45.1,338.5,47.1z"/>
		<g>
			<rect x="356.3" y="18.8" fill="#FFFFFF" width="7.8" height="38.7"/>
			<path fill="#FFFFFF" d="M391.1,25.6c2,0,3.8,0.3,5.3,1c1.5,0.6,3.1,1.8,4.8,3.4l0.6,0.5l5-5.5l-0.5-0.5c-4-4.4-9.1-6.6-15-6.6
				c-5.9,0-10.9,1.9-14.9,5.8c-3.9,3.8-5.9,8.7-5.9,14.4c0,5.7,1.9,10.5,5.8,14.3c3.8,3.7,8.7,5.6,14.5,5.6c5.8,0,10.8-2.3,14.9-6.8
				l0.5-0.5l-5.1-5.2l-0.5,0.5c-1.6,1.5-3.2,2.7-4.7,3.4c-1.5,0.7-3.2,1-5.3,1c-3.3,0-6.1-1.2-8.5-3.6c-2.4-2.4-3.6-5.4-3.6-8.9
				c0-3.6,1.2-6.5,3.6-8.8C384.6,26.8,387.6,25.6,391.1,25.6z"/>
			<polygon fill="#FFFFFF" points="419.9,50.1 419.9,41.7 437.7,41.7 437.7,34.6 419.9,34.6 419.9,26.3 439.7,26.3 439.7,18.8 
				412.1,18.8 412.1,57.6 440.4,57.6 440.4,50.1 			"/>
		</g>
	</g>
</g>
</svg>
